<svg width="110" height="114" viewBox="0 0 110 114" fill="none" xmlns="http://www.w3.org/2000/svg">
<g filter="url(#filter0_d_12673_16657)">
<path d="M103.305 91.6988C103.305 96.2936 101.406 100.292 97.7935 103.26C94.417 106.042 90.2462 107.445 85.3926 107.445H19.4779C15.1209 107.445 11.5086 106.166 8.74045 103.645C6.09642 101.249 4.3213 97.7466 3.29099 92.9655C2.42206 88.8922 2 83.7385 2 77.2312V2H93.213V78.858H98.7989L100.239 81.2796C102.275 84.6947 103.305 88.1968 103.305 91.6988Z" fill="white"/>
</g>
<path d="M95.9811 83.8254H88.2476V6.96735H6.96533V77.2312C6.96533 83.3287 7.36257 88.2216 8.14461 91.9223C8.92665 95.623 10.2424 98.3053 12.0796 99.9694C13.9168 101.633 16.3746 102.466 19.4655 102.466H85.3802C89.0793 102.466 92.1578 101.447 94.628 99.423C97.0983 97.3988 98.3272 94.8158 98.3272 91.6987C98.3272 89.0909 97.5328 86.4705 95.9687 83.8254H95.9811ZM15.2947 95.3125C14.2644 94.17 13.532 92.1706 13.0851 89.2895C12.6382 86.4085 12.4272 82.3973 12.4272 77.2312V12.4315H82.7982V83.8378H27.5218C27.3728 88.2091 26.6404 91.4876 25.3122 93.7105C23.9964 95.921 22.0475 97.0262 19.4655 97.0262C17.7028 97.0262 16.3126 96.455 15.2823 95.3249L15.2947 95.3125ZM90.8172 95.4988C89.4393 96.5171 87.627 97.0262 85.3802 97.0262H29.7437C31.1216 94.9524 32.065 92.3818 32.5615 89.2895H92.4806C92.7537 90.134 92.8902 90.9412 92.8902 91.6987C92.8902 93.2138 92.1951 94.4805 90.8172 95.4988Z" fill="black"/>
<path d="M70.1241 24.9866H25.6597V30.4383H70.1241V24.9866Z" fill="black"/>
<path d="M70.1241 36.0391H25.6597V41.4908H70.1241V36.0391Z" fill="black"/>
<path d="M70.1241 47.1288H25.6597V52.5805H70.1241V47.1288Z" fill="black"/>
<path d="M70.1241 58.1812H25.6597V63.6329H70.1241V58.1812Z" fill="black"/>
<path d="M47.2092 69.2833H25.6597V74.735H47.2092V69.2833Z" fill="black"/>
<defs>
<filter id="filter0_d_12673_16657" x="0" y="0" width="109.305" height="113.445" filterUnits="userSpaceOnUse" color-interpolation-filters="sRGB">
<feFlood flood-opacity="0" result="BackgroundImageFix"/>
<feColorMatrix in="SourceAlpha" type="matrix" values="0 0 0 0 0 0 0 0 0 0 0 0 0 0 0 0 0 0 127 0" result="hardAlpha"/>
<feOffset dx="2" dy="2"/>
<feGaussianBlur stdDeviation="2"/>
<feColorMatrix type="matrix" values="0 0 0 0 0 0 0 0 0 0 0 0 0 0 0 0 0 0 0.35 0"/>
<feBlend mode="normal" in2="BackgroundImageFix" result="effect1_dropShadow_12673_16657"/>
<feBlend mode="normal" in="SourceGraphic" in2="effect1_dropShadow_12673_16657" result="shape"/>
</filter>
</defs>
</svg>
