<svg width="80" height="114" viewBox="0 0 80 114" fill="none" xmlns="http://www.w3.org/2000/svg">
<g filter="url(#filter0_d_12673_16558)">
<path d="M56.0972 54.7041C59.8708 57.4237 62.8996 60.6153 65.1465 64.2291C68.3243 69.3827 70.2111 75.4802 70.7449 82.3973C73.1655 84.1111 73.7489 86.185 73.7489 87.7869V95.9335C73.7489 97.4858 73.302 98.976 72.4703 100.218C71.7628 101.236 70.8318 102.105 69.578 102.875C67.8526 103.943 65.4071 104.775 61.8817 105.483C58.8405 106.092 55.2034 106.576 51.0574 106.924C46.9734 107.272 42.5294 107.445 37.8744 107.445C33.2194 107.445 28.7755 107.272 24.6791 106.924C20.5455 106.576 16.9084 106.092 13.8919 105.483C10.3914 104.775 7.95838 103.956 6.22051 102.913C4.91712 102.105 3.97371 101.236 3.27857 100.218C2.44688 98.976 2 97.4858 2 95.9335V87.7869C2 86.185 2.57101 84.0986 4.9916 82.3973C5.53779 75.4802 7.4246 69.3827 10.6024 64.2291C12.8368 60.6153 15.8657 57.4237 19.6517 54.7041C15.9153 52.0341 12.9113 48.9046 10.6769 45.3405C7.38736 40.1496 5.47572 33.9652 4.96678 26.9488C4.28405 26.3899 3.72545 25.7938 3.27857 25.1357C2.44688 23.8938 2 22.4036 2 20.8389V12.2453C2 10.1962 2.9434 7.37721 7.46184 5.55169C9.38591 4.76932 11.881 4.13598 15.0712 3.60199C18.0132 3.10525 21.4641 2.70785 25.3494 2.42223C29.21 2.14902 33.4181 2 37.8744 2C42.3308 2 46.5389 2.14902 50.387 2.42223C54.2724 2.70785 57.7357 3.10525 60.6777 3.60199C63.8679 4.13598 66.3505 4.76932 68.2746 5.55169C72.8055 7.37721 73.7489 10.1962 73.7489 12.2453V20.8389C73.7489 22.4036 73.302 23.8814 72.4703 25.1357C72.0234 25.7814 71.4524 26.3899 70.7697 26.9488C70.2731 33.9652 68.3491 40.1496 65.072 45.353C62.8376 48.9046 59.8336 52.0341 56.0972 54.7041Z" fill="white"/>
</g>
<path d="M60.8761 42.6954C64.116 37.5542 65.7918 31.3449 65.9407 24.0925C66.3379 23.9186 66.6731 23.7448 66.971 23.5709C67.6041 23.1735 68.0634 22.7637 68.3613 22.3415C68.6468 21.9193 68.7958 21.4225 68.7958 20.8389V12.2453C68.7958 11.4877 68.0013 10.7923 66.4373 10.159C64.8608 9.52562 62.676 8.96678 59.8706 8.49488C57.0652 8.02298 53.7881 7.65042 50.0517 7.37722C46.3029 7.10401 42.2561 6.96741 37.8867 6.96741C33.5172 6.96741 29.4704 7.10401 25.7216 7.37722C21.9728 7.65042 18.7081 8.02298 15.9027 8.49488C13.0973 8.96678 10.9126 9.5132 9.33608 10.159C7.75959 10.7923 6.97754 11.4877 6.97754 12.2453V20.8389C6.97754 21.4101 7.12651 21.9193 7.41201 22.3415C7.69752 22.7637 8.1568 23.1735 8.8023 23.5709C9.10021 23.7448 9.43538 23.9186 9.8326 24.0925C9.98156 31.3449 11.6574 37.5542 14.8972 42.6954C18.0626 47.7125 22.9907 51.6988 29.6566 54.7041C22.941 57.7342 17.9881 61.7702 14.86 66.8494C11.6698 72.0155 10.0064 78.2496 9.84501 85.5268C9.68364 85.5889 9.50985 85.6386 9.36089 85.7006C7.7844 86.334 7.00237 87.0294 7.00237 87.787V95.9335C7.00237 96.5047 7.15134 97.0139 7.43684 97.4361C7.72235 97.8583 8.18164 98.2682 8.82713 98.6655C10.0436 99.3982 12.067 100.044 14.9221 100.628C17.7647 101.199 21.1784 101.658 25.1506 101.994C29.1229 102.329 33.3806 102.49 37.9239 102.49C42.4672 102.49 46.7249 102.329 50.6972 101.994C54.6694 101.658 58.0831 101.211 60.9506 100.628C63.818 100.056 65.8414 99.3982 67.0207 98.6655C67.6538 98.2682 68.113 97.8583 68.411 97.4361C68.6965 97.0139 68.8454 96.5172 68.8454 95.9335V87.787C68.8454 87.0294 68.051 86.334 66.4869 85.7006C66.3379 85.6386 66.1642 85.5889 66.0028 85.5268C65.8414 78.2496 64.178 72.0155 60.9878 66.8494C57.8473 61.7826 52.9067 57.7342 46.1912 54.7041C52.8571 51.6988 57.7852 47.7125 60.9506 42.6954H60.8761ZM25.7092 17.1133C29.4456 17.3865 33.5048 17.5231 37.8742 17.5231C42.2437 17.5231 46.2905 17.3865 50.0393 17.1133C53.7881 16.8401 57.0528 16.4676 59.8582 15.9957C61.323 15.7473 62.6139 15.4741 63.7436 15.1884V19.2741C61.9312 19.9944 59.0638 20.5905 55.1039 21.0624C50.2875 21.6336 44.5402 21.9317 37.8742 21.9317C31.2083 21.9317 25.461 21.6461 20.6446 21.0624C16.6848 20.5905 13.8173 19.9944 12.0049 19.2741V15.1884C13.1345 15.4741 14.4255 15.7473 15.8903 15.9957C18.6957 16.4676 21.9604 16.8401 25.7092 17.1133ZM55.1039 96.157C50.2875 96.7283 44.5402 97.0263 37.8742 97.0263C31.2083 97.0263 25.461 96.7407 20.6446 96.157C16.6848 95.6851 13.8173 95.089 12.0049 94.3687V90.7301C13.1345 91.0158 14.4255 91.289 15.8903 91.5373C18.6957 92.0092 21.9604 92.3818 25.7092 92.655C29.4456 92.9282 33.5048 93.0648 37.8742 93.0648C42.2437 93.0648 46.2905 92.9282 50.0393 92.655C53.7881 92.3818 57.0528 92.0092 59.8582 91.5373C61.323 91.289 62.6139 91.0158 63.7436 90.7301V94.3687C61.9312 95.089 59.0638 95.6851 55.1039 96.157ZM40.6921 52.4067V56.9518C47.7801 59.9819 52.8571 63.931 55.8984 68.7991C58.5672 73.071 60.0692 78.175 60.392 84.1359C60.2058 84.0987 60.0444 84.0614 59.8458 84.0366C57.4873 83.6392 54.7812 83.3163 51.7523 83.0679C49.8034 81.7391 48.1152 80.3483 46.6753 78.8829C43.7954 75.9397 41.7472 72.4377 40.5183 68.3768C39.2894 64.316 38.6811 59.448 38.6811 53.7727C38.6811 52.7171 38.8921 51.8603 39.2894 51.2269C39.699 50.5936 40.6052 49.9105 41.9955 49.1779C46.787 46.6569 50.3372 43.8007 52.6585 40.6091C54.9798 37.4051 56.2459 33.5802 56.457 29.122C54.5453 29.9044 52.0751 30.6619 49.0462 31.3697C46.0174 32.0776 42.7651 32.7234 39.2894 33.2822C35.8136 33.841 32.4124 34.2881 29.0608 34.5986C25.7092 34.9214 22.7548 35.0705 20.1729 35.0705C20.7191 37.0077 21.6997 38.8953 23.1024 40.7084C24.5175 42.5215 26.1437 44.198 27.9933 45.7379C29.8428 47.2654 31.68 48.5694 33.4923 49.6249C34.9447 50.4694 35.8633 51.1897 36.2481 51.7857C36.6205 52.3818 36.8191 53.1394 36.8191 54.0832C36.8191 59.9323 35.9378 64.9493 34.1875 69.1095C32.4248 73.2821 30.1904 76.8214 27.4843 79.7273C26.3919 80.8947 25.2872 81.9875 24.1824 83.0307C21.079 83.2915 18.3109 83.6143 15.9027 84.0241C15.7165 84.0614 15.5427 84.0862 15.3565 84.1235C15.6917 78.1626 17.1813 73.0586 19.8501 68.7867C22.8914 63.9186 27.9684 59.9695 35.0564 56.9394V52.3942C28.0305 49.389 22.9783 45.4896 19.9246 40.6836C17.2433 36.4737 15.7413 31.4567 15.4062 25.6076C18.1495 26.1416 21.3646 26.5638 25.1134 26.8742C29.0856 27.2095 33.3434 27.371 37.8867 27.371C42.4299 27.371 46.6877 27.2095 50.6599 26.8742C54.3839 26.5638 57.6114 26.1416 60.3672 25.6076C60.032 31.4443 58.53 36.4737 55.8735 40.6712C52.8323 45.4771 47.7801 49.3766 40.7169 52.3818L40.6921 52.4067Z" fill="black"/>
<defs>
<filter id="filter0_d_12673_16558" x="0" y="0" width="79.7489" height="113.445" filterUnits="userSpaceOnUse" color-interpolation-filters="sRGB">
<feFlood flood-opacity="0" result="BackgroundImageFix"/>
<feColorMatrix in="SourceAlpha" type="matrix" values="0 0 0 0 0 0 0 0 0 0 0 0 0 0 0 0 0 0 127 0" result="hardAlpha"/>
<feOffset dx="2" dy="2"/>
<feGaussianBlur stdDeviation="2"/>
<feColorMatrix type="matrix" values="0 0 0 0 0 0 0 0 0 0 0 0 0 0 0 0 0 0 0.35 0"/>
<feBlend mode="normal" in2="BackgroundImageFix" result="effect1_dropShadow_12673_16558"/>
<feBlend mode="normal" in="SourceGraphic" in2="effect1_dropShadow_12673_16558" result="shape"/>
</filter>
</defs>
</svg>
