<svg width="274" height="274" viewBox="0 0 274 274" fill="none" xmlns="http://www.w3.org/2000/svg">
<path d="M91.1201 0V45.56H45.5601V0H91.1201ZM136.68 0V45.56H182.23V0H136.68ZM227.79 0H182.23V45.56H227.79V0ZM273.34 0H227.78V45.56H273.34V0ZM0 45.56V91.11H45.55V45.56H0ZM182.23 45.56V91.11H227.79V45.56H182.23ZM227.79 45.56V91.11H273.35V45.56H227.79ZM91.1201 91.11V136.67H136.68V91.11H91.1201ZM136.68 91.11V136.67H182.23V91.11H136.68ZM182.23 91.11V136.67H227.79V91.11H182.23ZM45.5601 136.67V182.23H91.1201V136.67H45.5601ZM91.1201 136.67V182.23H136.68V136.67H91.1201ZM227.79 136.67V182.23H273.35V136.67H227.79ZM0 182.23V227.78H45.55V182.23H0ZM182.23 182.23V227.78H227.79V182.23H182.23ZM0 227.78V273.34H45.55V227.78H0ZM91.1201 227.78V273.34H136.68V227.78H91.1201ZM182.23 227.78V273.34H227.79V227.78H182.23ZM227.79 227.78V273.34H273.35V227.78H227.79Z" fill="url(#paint0_linear_32_1139)"/>
<defs>
<linearGradient id="paint0_linear_32_1139" x1="0" y1="136.67" x2="273.35" y2="136.67" gradientUnits="userSpaceOnUse">
<stop stop-color="#00C0FF"/>
<stop offset="1" stop-color="#0040FF"/>
</linearGradient>
</defs>
</svg>
