<svg width="228" height="228" viewBox="0 0 228 228" fill="none" xmlns="http://www.w3.org/2000/svg">
<path d="M91.11 0V45.56H45.56V0H91.11ZM136.67 0V45.56H182.23V0H136.67ZM0 45.56V91.12H45.56V45.56H0ZM91.12 45.56H45.56V91.12H91.12V45.56ZM91.11 45.56V91.12H136.67V45.56H91.11ZM182.23 45.56V91.12H227.78V45.56H182.23ZM45.56 91.12V136.67H91.11V91.12H45.56ZM136.67 91.12V136.67H182.23V91.12H136.67ZM182.23 91.12V136.67H227.78V91.12H182.23ZM0 136.68V182.24H45.56V136.68H0ZM45.56 136.68V182.24H91.11V136.68H45.56ZM91.11 136.68V182.24H136.67V136.68H91.11ZM182.23 182.24V227.79H227.78V182.24H182.23Z" fill="url(#paint0_linear_32_1131)"/>
<defs>
<linearGradient id="paint0_linear_32_1131" x1="0" y1="113.895" x2="227.78" y2="113.895" gradientUnits="userSpaceOnUse">
<stop stop-color="#00C0FF"/>
<stop offset="1" stop-color="#0040FF"/>
</linearGradient>
</defs>
</svg>
