<?xml version="1.0" encoding="UTF-8"?>
<svg id="Layer_2" data-name="Layer 2" xmlns="http://www.w3.org/2000/svg" xmlns:xlink="http://www.w3.org/1999/xlink" viewBox="0 0 105 80">
  <defs>
    <style>
      .cls-1 {
        filter: url(#drop-shadow-1);
      }

      .cls-2 {
        fill: #fff;
      }
    </style>
    <filter id="drop-shadow-1" x="0" y="0" width="105" height="80" filterUnits="userSpaceOnUse">
      <feOffset dx="2" dy="2"/>
      <feGaussianBlur result="blur" stdDeviation="2"/>
      <feFlood flood-color="#000" flood-opacity=".35"/>
      <feComposite in2="blur" operator="in"/>
      <feComposite in="SourceGraphic"/>
    </filter>
  </defs>
  <g id="Layer_1-2" data-name="Layer 1">
    <g>
      <g class="cls-1">
        <path class="cls-2" d="M96.84,24.55c0,5.12-.58,9.2-1.79,12.47-1.29,3.57-3.34,6.35-6.08,8.25l-4.47,3.05c.03.38.04.75.04,1.13,0,2.64-.97,5.13-2.8,7.21-1.37,1.55-3.07,2.6-5,3.08-.64,1.09-1.49,2.06-2.56,2.91-1.55,1.25-3.38,2.01-5.33,2.23-.61.81-1.33,1.52-2.16,2.12-1.58,1.13-3.4,1.74-5.43,1.82-1.44,1.26-3.59,2.28-6.76,2.28-2.83,0-5.49-.83-7.92-2.48l-.1-.06c-1.28.55-2.57.82-3.88.82-1.9,0-3.66-.59-5.15-1.71-.71.17-1.41.25-2.1.25-1.8,0-3.52-.51-5.1-1.53-1.43-.91-2.62-2.09-3.52-3.52-.14-.23-.28-.46-.41-.7-.64-.24-1.28-.56-1.89-.95-1.41-.87-2.61-2.06-3.52-3.52-.5-.78-.88-1.61-1.13-2.47-.54-.34-1.05-.73-1.54-1.18-1.97-1.86-3.02-4.25-3.04-6.93l-2.69-1.84c-2.74-1.89-4.8-4.67-6.12-8.26-1.18-3.26-1.78-7.45-1.78-12.47,0-4.57.33-8.1,1-10.79.8-3.15,1.99-5.39,3.64-6.86,1.75-1.57,3.87-2.39,6.14-2.39,1.69,0,3.4.47,5.09,1.41,1.13.63,2.38,1.36,3.74,2.17,1.1.66,2.4,1.25,3.85,1.78,1.23.45,2.7.68,4.38.68,1.77,0,3.53-.15,5.38-.47,1.81-.31,3.64-.65,5.6-1.04,1.96-.4,3.71-.61,5.17-.61,1.19,0,2.41.09,3.72.27.58.08,1.15.19,1.73.31.68-.05,1.4-.08,2.15-.11,1.33-.05,2.85-.07,4.63-.07,4.54,0,8.23-.19,10.97-.55,2.68-.36,4.73-.78,6.11-1.23,1.55-.51,2.74-.95,3.55-1.31.65-.3,1.3-.56,1.89-.77.91-.31,1.82-.46,2.72-.46,2.26,0,4.38.82,6.13,2.38,1.67,1.49,2.86,3.74,3.64,6.87.67,2.64,1,6.17,1,10.79Z"/>
      </g>
      <path d="M91.96,14.73c-.58-2.32-1.39-3.93-2.42-4.85-1.02-.91-2.18-1.37-3.47-1.37-.47,0-.93.08-1.4.24-.46.16-.98.37-1.57.64-.98.44-2.29.92-3.94,1.46-1.64.54-3.92,1-6.83,1.39-2.9.39-6.73.59-11.5.59-1.61,0-3.11.02-4.5.07-.92.03-1.79.08-2.59.14-.63-.15-1.29-.28-1.97-.38-1.09-.15-2.14-.23-3.17-.23-1.17,0-2.63.17-4.39.53-1.76.35-3.66.71-5.7,1.06s-4.05.53-6.06.53c-2.15,0-4.06-.3-5.75-.92-1.68-.61-3.19-1.31-4.52-2.1-1.33-.79-2.54-1.5-3.64-2.11-1.1-.61-2.15-.91-3.15-.91-1.3,0-2.46.46-3.48,1.37-1.03.92-1.83,2.53-2.42,4.85-.58,2.32-.88,5.59-.88,9.82,0,4.59.52,8.29,1.54,11.09,1.03,2.81,2.56,4.92,4.62,6.34l4.75,3.25c-.21.57-.32,1.17-.32,1.8,0,1.61.59,2.98,1.77,4.09.72.67,1.53,1.14,2.44,1.4v.12c0,1.02.29,2,.88,2.93.58.92,1.34,1.69,2.29,2.28.88.56,1.78.86,2.73.89.13.69.39,1.35.8,1.99.59.93,1.35,1.69,2.29,2.29s1.92.9,2.95.9,2.04-.3,3.19-.89c.2.32.44.63.72.92.93.95,2.04,1.43,3.34,1.43,1.19,0,2.39-.4,3.59-1.19.16-.11.32-.22.47-.35l2.16,1.47c1.76,1.19,3.65,1.79,5.68,1.79,2.37,0,4.05-.79,5.05-2.38.44.07.86.11,1.25.11,1.37,0,2.55-.36,3.55-1.08s1.73-1.69,2.2-2.91c.36.07.73.11,1.1.11,1.51,0,2.86-.48,4.04-1.43,1.19-.95,1.94-2.11,2.26-3.48h.25c1.83,0,3.35-.68,4.54-2.03,1.2-1.36,1.8-2.88,1.8-4.56,0-1-.14-2-.41-3l6.56-4.47c2.05-1.42,3.59-3.53,4.61-6.34,1.03-2.8,1.54-6.5,1.54-11.09,0-4.23-.29-7.5-.88-9.82ZM22.86,47.03c0-.46.24-.97.73-1.53l.51-.55c.27-.27.53-.46.77-.57.25-.11.51-.17.81-.17.58,0,1.08.24,1.48.7.4.46.61,1.05.61,1.76,0,.31-.16.66-.48,1.04-.32.38-.67.71-1.04.99-.38.28-.69.42-.94.42-.71,0-1.29-.2-1.76-.6-.46-.41-.69-.9-.69-1.49ZM27.07,52.64c0-.12.02-.26.07-.41.25-.13.51-.3.77-.49.95-.7,1.78-1.53,2.47-2.49.46-.64.77-1.23.92-1.78.23-.15.45-.29.68-.42.58-.33,1.08-.49,1.5-.49.49,0,1.02.28,1.59.84.57.56.86,1.1.86,1.61,0,.68-.38,1.51-1.13,2.47-.76.97-1.64,1.81-2.64,2.53s-1.88,1.08-2.64,1.08c-.53,0-1.08-.27-1.63-.82s-.82-1.1-.82-1.63ZM37.58,59.39c-.88.58-1.62.86-2.23.86-.52,0-1.05-.28-1.62-.84-.55-.55-.83-1.07-.84-1.57,1.17-.61,2.27-1.41,3.28-2.4s1.84-2.05,2.47-3.19c.39-.68.65-1.34.8-1.99.53-.27.98-.41,1.36-.41.54,0,1.08.28,1.63.83.55.55.83,1.09.83,1.63,0,.61-.3,1.36-.88,2.25-.59.89-1.32,1.77-2.18,2.65-.87.88-1.74,1.61-2.62,2.18ZM46,59.39c-.46.63-1.01,1.17-1.64,1.63-.64.47-1.23.7-1.76.7-.27,0-.52-.12-.73-.35-.14-.14-.23-.28-.27-.43.42-.36.82-.73,1.22-1.13,1-1,1.85-2.05,2.55-3.15.09-.02.16-.03.23-.03.27,0,.52.11.75.33.23.22.35.46.35.73,0,.51-.23,1.08-.7,1.7ZM54.5,63.07c-1.2,0-2.33-.35-3.41-1.06l-1.69-1.15c.59-.97.9-1.95.95-2.91.65.65,1.33,1.29,2.03,1.92,1.14,1.04,2.33,1.98,3.55,2.84-.32.24-.8.36-1.43.36ZM75.76,51.32c-.5.51-1.11.77-1.81.77-1.01,0-2.21-.56-3.61-1.69-1.41-1.12-2.8-2.46-4.18-4.01-1.38-1.55-2.55-2.98-3.53-4.3l-3,2.12c3.41,4.74,6.87,8.19,10.36,10.37.02.07.04.13.04.16v.13c0,.51-.25.98-.74,1.41s-1.03.64-1.64.64-1.38-.29-2.37-.86c-.99-.57-2.05-1.31-3.18-2.2-1.14-.89-2.22-1.82-3.24-2.78-1.03-.96-1.87-1.83-2.53-2.58l-2.78,2.42c1.36,1.56,2.84,3.01,4.43,4.35,1.58,1.35,3.24,2.54,4.98,3.59-.12.61-.37,1.09-.75,1.43-.38.34-.85.51-1.41.51-.76,0-1.69-.36-2.79-1.1-1.09-.73-2.2-1.61-3.31-2.65-1.11-1.04-2.09-2.01-2.95-2.91l-1.76,1.71c-.23-.54-.58-1.04-1.04-1.49-.62-.62-1.32-1.03-2.1-1.23.05-.28.07-.55.07-.82,0-1.05-.3-2.04-.88-2.97-.59-.93-1.34-1.68-2.27-2.27-.93-.59-1.92-.88-2.97-.88-.6,0-1.21.11-1.85.33-.07-.15-.16-.29-.25-.44-.6-.93-1.37-1.69-2.31-2.29s-1.91-.9-2.91-.9c-.69,0-1.42.16-2.2.46-.2.08-.4.16-.59.26-.25-.46-.56-.88-.93-1.28-1.11-1.19-2.47-1.78-4.08-1.78-1.42,0-2.68.5-3.77,1.48l-4.87-3.35c-.74-.51-1.41-1.47-2.02-2.87-.61-1.4-1.1-3.09-1.46-5.06-.37-1.96-.55-4.03-.55-6.2s.11-4.1.33-5.92c.22-1.81.5-3.29.86-4.41.35-1.12.75-1.68,1.19-1.68.29,0,.89.3,1.79.91.9.61,2.09,1.31,3.55,2.11,1.47.79,3.18,1.49,5.15,2.1,1.96.61,4.16.92,6.57.92,1.91,0,3.74-.18,5.51-.55,1.26-.26,2.45-.52,3.57-.78l-4.65,2.32c-1.49.73-2.71,1.61-3.66,2.63-.95,1.03-1.43,2.19-1.43,3.48,0,1.22.41,2.38,1.23,3.46.82,1.09,1.86,1.97,3.13,2.64,1.27.67,2.58,1.01,3.92,1.01,1.56,0,3.21-.38,4.94-1.14,1.74-.75,3.53-1.51,5.37-2.27,1.84-.76,3.73-1.13,5.66-1.13s3.45.53,4.43,1.61l14.98,16.62c.7.79,1.06,1.77,1.06,2.97,0,.73-.25,1.35-.75,1.87ZM87.9,30.75c-.37,1.97-.85,3.66-1.45,5.06-.6,1.4-1.28,2.36-2.03,2.87l-6.37,4.4-14.36-15.93c-.88-.98-1.98-1.71-3.31-2.2s-2.78-.73-4.34-.73-3.01.22-4.54.68c-1.54.45-3.03.98-4.47,1.59s-2.76,1.14-3.96,1.59c-1.19.45-2.19.68-3,.68-.93,0-1.81-.34-2.64-1.01-.83-.67-1.24-1.36-1.24-2.07,0-.85.84-1.69,2.52-2.52l10.81-5.39c.27-.14.74-.27,1.43-.38.68-.11,1.52-.2,2.52-.28,1-.07,2.13-.13,3.37-.18,1.25-.05,2.58-.07,3.99-.07,4.96,0,9.01-.2,12.16-.61,3.15-.4,5.61-.88,7.36-1.42,1.76-.55,3.02-1.05,3.77-1.49.57-.34.96-.56,1.2-.66.23-.1.45-.14.67-.14.71,0,1.3,1.05,1.76,3.16.46,2.12.7,5.06.7,8.85,0,2.17-.19,4.24-.55,6.2Z"/>
    </g>
  </g>
</svg>