<?xml version="1.0" encoding="UTF-8"?>
<svg id="Capa_2" data-name="Capa 2" xmlns="http://www.w3.org/2000/svg" viewBox="0 0 721.74 699.28">
  <g id="objects">
    <g>
      <path d="M702.3,13.67c-23.46-20.28-58.94-17.7-79.22,5.77l-292.4,338.37-69.13-80c-20.29-23.48-55.77-26.05-79.22-5.77-23.47,20.28-26.06,55.75-5.78,79.22l111.63,129.18c10.67,12.34,26.18,19.44,42.5,19.44s31.83-7.1,42.5-19.44L708.07,92.89c20.28-23.47,17.69-58.94-5.78-79.22Z" style="fill: #1c48b0; stroke-width: 0px;"/>
      <path d="M606.6,353.85c-15.51,0-28.08,12.57-28.08,28.08,0,69.79-27.17,135.36-76.53,184.67-49.29,49.33-114.86,76.51-184.65,76.51-144.02,0-261.18-117.16-261.18-261.18,0-69.79,27.17-135.36,76.53-184.67,49.28-49.34,114.86-76.51,184.65-76.51,14.48,0,28.99,1.19,43.14,3.54,15.29,2.55,29.77-7.8,32.31-23.11,2.54-15.3-7.81-29.76-23.1-32.3-17.18-2.85-34.79-4.3-52.34-4.3-84.8,0-164.49,33.02-224.37,92.96C33.02,217.45,0,297.14,0,381.93c0,174.98,142.36,317.34,317.34,317.34,84.8,0,164.49-33.02,224.36-92.96,59.96-59.9,92.98-139.58,92.98-224.38,0-15.51-12.57-28.08-28.08-28.08Z" style="fill: #1c48b0; stroke-width: 0px;"/>
    </g>
  </g>
</svg>