<?xml version="1.0" encoding="utf-8"?>
<svg viewBox="0 0 468 222.5" xmlns="http://www.w3.org/2000/svg">
  <g transform="matrix(1, 0, 0, 1, -227, -126)">
    <path d="M 414 174.5 C 413.4 174.5 412.9 174.1 412.9 173.4 L 412.9 159.2 C 412.9 158.6 413.4 158.1 414 158.1 L 420.9 158.1 C 441.7 158.1 451 149 451 133.9 C 451 120.8 445.2 111.7 428.3 111.7 L 415.5 111.7 C 401.2 111.7 392.3 120.8 392.3 135 L 392.3 201.8 C 392.3 208.2 387.2 210.9 378.3 207.7 L 377.8 207.5 C 369 204.3 364 197.9 364 191.5 L 364 135 C 364 102.5 386.8 79.7 419.3 79.7 L 447.8 79.7 C 472.3 79.7 479.2 98.5 479.2 118.6 C 479.2 152.1 462.4 158.1 442.2 158.1 L 441.1 158.1 L 441.1 173.4 C 441.1 174.1 440.6 174.5 440 174.5 L 414 174.5 Z" style="fill: rgb(95, 99, 238);"/>
    <path d="M 284.7 189.1 C 282.2 192.3 278.9 194.6 274.9 195.7 C 270.9 196.8 266.6 196.8 262.6 195.7 C 258.6 194.6 255 192.4 252.2 189.1 C 249.4 185.8 247.5 181.7 246.8 177.3 C 246.1 172.9 246.6 168.4 248.4 164.3 C 250.2 160.2 253.1 156.7 256.8 154.2 C 260.5 151.7 264.8 150.3 269.3 150.3 C 273.8 150.3 278.1 151.7 281.8 154.2 C 285.5 156.7 288.4 160.2 290.2 164.3 C 292 168.4 292.5 172.9 291.8 177.3 C 291.1 181.7 289.2 185.8 286.4 189.1 L 284.7 189.1 Z M 267.7 126.5 C 263.2 126.5 258.9 128 255.2 130.5 C 251.5 133 248.6 136.6 246.8 140.7 C 245 144.8 244.5 149.3 245.2 153.7 C 245.9 158.1 247.8 162.1 250.6 165.4 C 253.4 168.7 257 171.1 261 172.2 C 265 173.3 269.3 173.3 273.3 172.2 C 277.3 171.1 280.9 168.7 283.7 165.4 C 286.5 162.1 288.4 158.1 289.1 153.7 C 289.8 149.3 289.3 144.8 287.5 140.7 C 285.7 136.6 282.8 133 279.1 130.5 C 275.4 128 271.1 126.5 266.6 126.5 L 267.7 126.5 Z" style="fill: rgb(95, 99, 238);"/>
    <path d="M 227.8 154.6 C 226.9 157.6 225.7 160.5 224.2 163.3 L 223.3 164.7 L 227 169.4 C 229.5 172.6 230.5 176.7 229.8 180.7 C 229.1 184.7 227 188.2 223.8 190.7 L 221.1 192.8 C 218.6 194.8 215.4 195.8 212.2 195.8 C 208.9 195.8 205.8 194.8 203.2 192.8 L 198.9 189.3 C 196.3 187.3 192.9 186.3 189.4 186.3 L 189.4 186.3 L 189.4 148.8 C 189.4 145.2 191.8 142.8 195.4 142.8 L 201.9 142.8 C 207.8 142.8 213.5 145.1 217.8 149.4 C 220.7 152.3 222.8 155.8 224 159.6 L 227.8 154.6 Z" style="fill: rgb(95, 99, 238);"/>
    <path d="M 311.4 158.1 L 314.4 158.1 C 315.1 158.1 315.5 158.6 315.5 159.2 L 315.5 173.4 C 315.5 174.1 315.1 174.5 314.4 174.5 L 288.4 174.5 C 287.8 174.5 287.3 174.1 287.3 173.4 L 287.3 159.2 C 287.3 158.6 287.8 158.1 288.4 158.1 L 295.3 158.1 C 308.7 158.1 316.8 147.5 316.8 135.8 C 316.8 120.5 311.3 111.7 294.4 111.7 L 281.6 111.7 C 267.3 111.7 258.4 120.8 258.4 135 L 258.4 201.8 C 258.4 208.2 253.3 210.9 244.4 207.7 L 243.9 207.5 C 235.1 204.3 230.1 197.9 230.1 191.5 L 230.1 135 C 230.1 102.5 252.9 79.7 285.4 79.7 L 313.9 79.7 C 338.4 79.7 345.3 98.5 345.3 118.6 C 345.3 135.5 339.8 148.5 329.2 155.2 C 326 157.4 322.1 158.7 318 158.7 L 311.4 158.1 Z" style="fill: rgb(95, 99, 238);"/>
    <path d="M 695 126.5 L 695 126.5 C 688.1 126.5 681.7 129.8 677.6 135.4 C 673.5 141 672.1 148.1 673.8 154.8 L 681.1 187.6 C 681.7 190.1 684.1 191.7 686.6 191.1 L 686.6 191.1 C 689.1 190.5 690.7 188.1 690.1 185.6 L 682.8 152.8 C 682 149.9 682.8 146.8 684.8 144.5 C 686.8 142.2 689.7 141 692.7 141 L 692.7 141 C 695.7 141 698.6 142.2 700.6 144.5 C 702.6 146.8 703.4 149.9 702.6 152.8 L 695.3 185.6 C 694.7 188.1 696.3 190.5 698.8 191.1 L 698.8 191.1 C 701.3 191.7 703.7 190.1 704.3 187.6 L 711.6 154.8 C 713.3 148.1 711.9 141 707.8 135.4 C 703.7 129.8 697.3 126.5 690.4 126.5 L 695 126.5 Z" style="fill: rgb(95, 99, 238);"/>
    <path d="M 533.1 126.5 C 528.6 126.5 524.3 128 520.6 130.5 C 516.9 133 514 136.6 512.2 140.7 C 510.4 144.8 509.9 149.3 510.6 153.7 C 511.3 158.1 513.2 162.1 516 165.4 C 518.8 168.7 522.4 171.1 526.4 172.2 C 530.4 173.3 534.7 173.3 538.7 172.2 C 542.7 171.1 546.3 168.7 549.1 165.4 C 551.9 162.1 553.8 158.1 554.5 153.7 C 555.2 149.3 554.7 144.8 552.9 140.7 C 551.1 136.6 548.2 133 544.5 130.5 C 540.8 128 536.5 126.5 532 126.5 L 533.1 126.5 Z M 550.1 189.1 C 547.6 192.3 544.3 194.6 540.3 195.7 C 536.3 196.8 532 196.8 528 195.7 C 524 194.6 520.4 192.4 517.6 189.1 C 514.8 185.8 512.9 181.7 512.2 177.3 C 511.5 172.9 512 168.4 513.8 164.3 C 515.6 160.2 518.5 156.7 522.2 154.2 C 525.9 151.7 530.2 150.3 534.7 150.3 C 539.2 150.3 543.5 151.7 547.2 154.2 C 550.9 156.7 553.8 160.2 555.6 164.3 C 557.4 168.4 557.9 172.9 557.2 177.3 C 556.5 181.7 554.6 185.8 551.8 189.1 L 550.1 189.1 Z" style="fill: rgb(95, 99, 238);"/>
    <path d="M 627.1 190.1 C 618.1 198.1 604.1 193.6 598.7 188.2 C 593.3 182.8 588.9 168.8 596.9 159.8 L 609.7 146.9 C 614.6 141.8 622.4 140.6 628.7 143.9 L 628.7 143.9 C 635 147.2 637.8 154.7 635.7 161.5 L 629.2 182.8 C 628.4 185.4 628.7 188.2 630.1 190.6 L 627.1 190.1 Z M 606.1 126.5 C 601.6 126.5 597.3 128 593.6 130.5 C 589.9 133 587 136.6 585.2 140.7 C 583.4 144.8 582.9 149.3 583.6 153.7 C 584.3 158.1 586.2 162.1 589 165.4 C 591.8 168.7 595.4 171.1 599.4 172.2 C 603.4 173.3 607.7 173.3 611.7 172.2 C 615.7 171.1 619.3 168.7 622.1 165.4 C 624.9 162.1 626.8 158.1 627.5 153.7 C 628.2 149.3 627.7 144.8 625.9 140.7 C 624.1 136.6 621.2 133 617.5 130.5 C 613.8 128 609.5 126.5 605 126.5 L 606.1 126.5 Z" style="fill: rgb(95, 99, 238);"/>
  </g>
</svg>