<?xml version="1.0" encoding="utf-8"?>
<!-- Generator: Adobe Illustrator 27.1.1, SVG Export Plug-In . SVG Version: 6.00 Build 0)  -->
<svg version="1.1" id="Capa_1" xmlns="http://www.w3.org/2000/svg" xmlns:xlink="http://www.w3.org/1999/xlink" x="0px" y="0px"
	 viewBox="0 0 525.5 188" style="enable-background:new 0 0 525.5 188;" xml:space="preserve">
<style type="text/css">
	.st0{fill-rule:evenodd;clip-rule:evenodd;fill:#1529C4;}
	.st1{fill-rule:evenodd;clip-rule:evenodd;fill:#7D8DFA;}
	.st2{fill-rule:evenodd;clip-rule:evenodd;fill:#54A8FC;}
	.st3{fill-rule:evenodd;clip-rule:evenodd;fill:#C3C3DC;}
</style>
<g id="svgg">
	<path id="path0" class="st0" d="M396.6,94.6V159h17.6h17.6V94.6V30.2h-17.6h-17.6V94.6 M31.5,48.6c-9.5,1.9-16,7.5-18.9,16.4
		c-1.6,4.7-1.7,7.5-1.7,28.3l0,19.5h4.5h4.5v-9v-9L38.3,95l18.5,0.1l0.1,8.9l0.1,8.9h4.5H66l0-19.2c0-24.2-0.4-27.6-4-33.8
		C56.6,50.8,43.9,46.1,31.5,48.6 M94.7,48.3c-9.5,1.4-21.2,5.7-20.6,7.5c0.4,1.3,2.9,6.4,3.1,6.4c0.1,0,1.2-0.5,2.5-1.2
		c4.3-2.2,10.3-4,15-4.6l2.3-0.3L97,84.4l0.1,28.3l4.4,0.1l4.4,0.1l0.1-28.3l0.1-28.3l1.2,0.1c4.3,0.4,11,2.3,15.6,4.5
		c1.6,0.8,3,1.4,3.1,1.4c0.3,0,3.1-6.2,3.1-6.8c0-1.1-10-5-15.9-6.3C110,48.4,97.5,47.9,94.7,48.3 M153.4,48.6
		c-11.1,2-17.9,8.5-17.9,17.1c0,5.8,2.5,10.7,6.8,13.2c1.8,1.1,1.8,1-0.1,1.8c-10.3,4.5-12.7,17.8-4.7,25.7c9.2,9,35.7,9.3,46.7,0.4
		l1-0.8l-1.5-3.5c-1.5-3.4-1.5-3.5-2.2-3c-10.1,7.3-30.1,8.2-36.8,1.7c-4-3.9-3.8-10.6,0.4-13.8c3.5-2.7,6.7-3.2,19.3-3.2l9.7,0
		v-3.9v-3.9l-10.8-0.1c-10.3-0.1-10.9-0.2-12.7-0.9c-8-3.2-8.1-13.6-0.1-17.5c6.3-3,17.5-2.8,25.9,0.7c1.7,0.7,3.2,1.3,3.3,1.3
		c0.2,0,0.9-1.5,1.6-3.5l1.3-3.6l-2.6-1.2C173.3,48.5,161.4,47.2,153.4,48.6 M219.4,48.6c-5.1,1.1-8.6,3.1-11.9,6.6l-2.1,2.2v-4.3
		v-4.3H201h-4.5l0.1,31.9l0.1,31.9l4.6,0.1l4.6,0.1v-20c0-22.1,0.1-23.2,2.2-27.6c5.7-12,26.1-12.6,31.8-0.9
		c2.2,4.4,2.2,5.5,2.2,28.2v20.3h4.5h4.5l-0.1-22.3c-0.1-25.3-0.1-24.6-3.1-30.7C243.3,50.7,231.4,46,219.4,48.6 M286.2,48.5
		c-7.7,1.1-14.7,5.5-17.2,10.7c-3.2,6.9-1.1,15.5,4.9,19.5l2,1.3l-2.5,1.3c-12.1,6.2-11.3,22.7,1.4,28.8c11.1,5.4,30.2,4.2,40.5-2.4
		c1.2-0.8,2.2-1.4,2.2-1.5c0,0-0.4-1.1-1-2.3c-0.5-1.2-1.2-2.8-1.5-3.5l-0.5-1.3l-1.1,0.8c-9.2,6.9-29.2,7.8-36.2,1.6
		c-3.9-3.4-4-10.1-0.2-13.5c3.4-3.1,6.6-3.7,19.5-3.7h9.8v-4v-4l-9.9,0c-15.6,0-19.4-1.9-19.4-9.9c0-10.2,17.1-14.2,32.6-7.6
		l2.7,1.2l1.3-3.4c1.4-3.9,1.5-3.8-1.1-4.9C305.5,48.6,294.5,47.3,286.2,48.5 M347.7,48.3c-11,2.1-17.7,8.2-20.7,18.6
		c-0.7,2.6-0.8,3.2-0.9,24.3l-0.1,21.6h4.3h4.3l0.1-8.9l0.1-8.9l18.5-0.1l18.5-0.1v9v9l4.6-0.1l4.6-0.1l0.1-16.7
		c0.1-19.2-0.2-25.3-1.5-29.8c-2.5-8.6-8.4-14.5-17-17C360,48.4,350.1,47.8,347.7,48.3 M43.1,56.6c9.9,2,13.4,7.8,13.8,22.6l0.2,7.8
		H38.4H19.7l0.2-8.4c0.2-9,0.4-10.1,2.3-14.1C25.6,57.9,34.1,54.7,43.1,56.6 M360.1,57c8.6,2.7,11.7,8.6,11.7,22.7l0,7.3h-18.6
		h-18.6l0-4.9c0-14.7,2.3-20.5,9.3-24C348.2,55.9,355.2,55.5,360.1,57"/>
	<path id="path2" class="st1" d="M396.5,94.6c0,35.5,0,50.1,0.1,32.3c0-17.8,0-46.8,0-64.6C396.5,44.5,396.5,59.1,396.5,94.6
		 M439.3,94.6V159h17.7h17.7V94.6V30.2h-17.7h-17.7V94.6 M482.4,94.6V159H500h17.6V94.6V30.2H500h-17.6V94.6 M37.5,48
		c0.5,0.1,1.3,0.1,1.7,0c0.4-0.1,0-0.1-1-0.1C37.3,47.8,36.9,47.9,37.5,48 M100.3,48c0.6,0.1,1.6,0.1,2.2,0c0.6-0.1,0.1-0.1-1.1-0.1
		C100.2,47.8,99.7,47.9,100.3,48 M160.1,48c0.5,0.1,1.4,0.1,1.9,0c0.5-0.1,0.1-0.1-0.9-0.1S159.6,47.9,160.1,48 M225.5,48
		c0.5,0.1,1.3,0.1,1.7,0c0.4-0.1,0-0.1-1-0.1C225.4,47.8,225,47.9,225.5,48 M292.4,48c0.5,0.1,1.3,0.1,1.7,0c0.4-0.1,0-0.1-1-0.1
		C292.2,47.8,291.8,47.9,292.4,48 M352.6,48c0.5,0.1,1.3,0.1,1.7,0c0.4-0.1,0-0.1-1-0.1C352.5,47.8,352.1,47.9,352.6,48 M160.6,55.9
		c0.8,0.1,2.1,0.1,2.8,0c0.7-0.1,0-0.1-1.5-0.1C160.4,55.8,159.8,55.8,160.6,55.9 M292.5,55.9c0.8,0.1,2.1,0.1,2.8,0
		c0.7-0.1,0-0.1-1.5-0.1C292.3,55.8,291.7,55.8,292.5,55.9 M106.1,56.4c-0.1,0.2-0.1,13.1-0.1,28.5l0.1,28.1l0.2-28.5
		c0.1-15.7,0.1-28.5,0.1-28.5S106.2,56.2,106.1,56.4 M380.9,75.1c0,0.8,0.1,1,0.2,0.6c0.1-0.4,0.1-1,0-1.4
		C380.9,74,380.9,74.4,380.9,75.1 M56.8,81c0,3.4,0.1,4.8,0.1,3c0.1-1.8,0.1-4.6,0-6.2C56.8,76.1,56.8,77.6,56.8,81 M325.8,94.1
		c0,10.2,0,14.4,0.1,9.2c0.1-5.2,0.1-13.5,0-18.6C325.9,79.6,325.8,83.8,325.8,94.1 M334.8,81.3c0,3.2,0.1,4.6,0.1,3
		c0.1-1.6,0.1-4.2,0-5.9C334.8,76.8,334.8,78.1,334.8,81.3 M306.2,80.3c0,2.3,0.1,3.2,0.1,2s0.1-3.1,0-4.1
		C306.2,77,306.2,78,306.2,80.3 M38.1,95.2l18.5,0.1l0.1,8.7l0.1,8.7l0-8.8l0-8.8L38.1,95.2l-18.5-0.1L38.1,95.2 M334.8,95.4
		c-0.1,0.2-0.1,4.3-0.1,9l0.1,8.6l0.1-8.9l0.1-8.9l18.5-0.1l18.5-0.1L353.5,95C338.8,94.9,334.9,95,334.8,95.4 M366.8,135.4
		c0,1.9,0.1,2.6,0.1,1.6c0.1-1,0.1-2.6,0-3.4C366.9,132.7,366.8,133.5,366.8,135.4 M367.5,136.6c0,1.2,0.1,1.7,0.1,1.1
		c0.1-0.6,0.1-1.6,0-2.2C367.5,134.9,367.5,135.4,367.5,136.6"/>
	<path id="path3" class="st2" d="M256.4,134c0,3.3,0.1,4.9,0.3,4.8c0.2-0.1,0.3-2.2,0.3-5c0-3-0.1-4.8-0.3-4.8
		C256.6,129,256.4,130.9,256.4,134 M340.8,134c0,3.3,0.1,4.9,0.3,4.8c0.2-0.1,0.3-2.2,0.3-5c0-3-0.1-4.8-0.3-4.8
		C341,129,340.8,130.9,340.8,134 M356.1,129.9c-0.5,0.5-0.8,1.2-0.8,1.7c0,0.5-0.2,0.9-0.6,1c-0.6,0.1-0.6,0.2,0,0.2
		c0.5,0,0.6,0.4,0.6,2.9c0,1.6,0.2,3,0.3,3.1c0.2,0.1,0.3-0.9,0.3-2.9v-3.1l1.3-0.1l1.3-0.1l-1.1-0.1c-1.9-0.2-1.8-2.8,0.1-2.8
		c0.5,0,0.8-0.1,0.7-0.3C357.9,128.8,357,129,356.1,129.9 M163.8,134.2c0,3.2,0.1,4.8,0.3,4.7c0.2-0.1,0.3-1.9,0.3-4.2v-4l2.9,3.9
		c1.6,2.2,3.1,4.1,3.3,4.3c0.2,0.2,0.3-1.5,0.3-4.6c0-3-0.1-4.9-0.3-4.9c-0.2,0-0.3,1.6-0.3,4v4l-2.9-3.9
		C163.6,128.5,163.8,128.4,163.8,134.2 M246.5,129.9c0,0.3,0.2,0.5,0.4,0.4c0.6-0.2,0.7-1,0.1-1
		C246.7,129.4,246.5,129.6,246.5,129.9 M262,129.8c0.2,0.6,1,0.7,1,0.1c0-0.3-0.2-0.5-0.5-0.5C262.1,129.4,262,129.6,262,129.8
		 M306.9,129.7c-0.1,0.2,0,0.4,0.2,0.5c0.4,0.3,1-0.1,1-0.5C308.1,129.3,307.2,129.3,306.9,129.7 M273.2,129.9
		c-0.1,0.1-0.3,0.8-0.3,1.4c0,0.8-0.2,1.2-0.6,1.3c-0.6,0.1-0.6,0.2,0,0.2c0.5,0,0.6,0.4,0.6,2.8c0,3,0.4,3.7,1.9,3.3
		c1.2-0.3,1.1-0.8-0.1-0.7c-0.9,0-0.9,0-1-2.6l-0.1-2.6l1.1-0.1l1.1-0.1l-1.1-0.1c-1-0.1-1.1-0.1-1.2-1.5
		C273.5,130.3,273.4,129.8,273.2,129.9 M302.6,130.9c0,0.9-0.2,1.3-0.8,1.5l-0.8,0.3l0.8,0c0.7,0,0.8,0.2,0.8,2.7
		c0,3,0.4,3.7,1.9,3.3c1.2-0.3,1.1-0.8-0.2-0.6l-1,0.2v-2.8v-2.8l1.1-0.1l1.1-0.1l-1.1-0.1c-1.1-0.1-1.1-0.1-1.1-1.4
		c0-0.8-0.2-1.4-0.3-1.4C302.8,129.7,302.6,130.3,302.6,130.9 M350.8,130.9c0,0.9-0.2,1.3-0.8,1.5l-0.8,0.3l0.8,0
		c0.7,0,0.8,0.2,0.8,2.7c0,3,0.4,3.7,1.9,3.3c1.2-0.3,1.1-0.8-0.2-0.6l-1,0.2v-2.8v-2.8l1.1-0.1l1.1-0.1l-1.1-0.1
		c-1.1-0.1-1.1-0.1-1.1-1.4c0-0.8-0.2-1.4-0.3-1.4S350.8,130.3,350.8,130.9 M174.1,132.8c-2.2,2.2-0.8,6,2.1,6c1.6,0,2.7-0.9,3-2.4
		c0.5-2.5-0.7-4.3-3-4.3C175.3,132.1,174.6,132.4,174.1,132.8 M181,135.6c0,4.1,0.6,4.4,0.8,0.3c0.2-5,3.7-5,3.7,0
		c0,1.5,0.2,2.8,0.3,3c0.7,0.4,0.4-5.5-0.3-6.1c-0.7-0.7-2.5-0.8-3.1-0.2c-0.3,0.3-0.5,0.3-0.9,0C181.1,132.1,181,132.4,181,135.6
		 M193.2,133c-1.6,1.6-1,4.9,1,5.7c1.2,0.5,2.7,0.1,3-0.7c0.1-0.4,0.1-0.4-0.3-0.1c-0.8,0.7-2.6,0.5-3.2-0.3c-1.7-2.5,0.5-6,2.9-4.7
		c0.4,0.2,0.7,0.2,0.7,0C197.2,131.8,194.3,131.9,193.2,133 M199.4,133c-1.5,1.5-1,4.9,0.9,5.7c2.2,0.9,4.1-0.5,4.1-3.1
		C204.4,132.4,201.5,130.9,199.4,133 M206.1,135.4c0,1.8,0.2,3.3,0.3,3.5c0.2,0.1,0.3-0.7,0.3-2.4c0-2.1,0.1-2.7,0.7-3.3
		c1.6-1.6,2.8-0.5,2.8,2.9c0,1.4,0.2,2.6,0.3,2.8c0.6,0.4,0.4-5.1-0.2-6c-0.6-0.9-2.1-1-3-0.2c-0.6,0.5-0.6,0.5-0.6,0
		c0-0.3-0.2-0.6-0.3-0.6C206.3,132.1,206.1,133.4,206.1,135.4 M211.4,132.5c-0.7,0.7-0.5,1.1,0.2,0.5c1.7-1.6,2.8-0.3,2.8,3.3
		c0,1.7,0.1,2.7,0.3,2.5c0.6-0.4,0.4-5.1-0.2-6C214,132,212.1,131.8,211.4,132.5 M217.2,135.5c0,2.3,0.1,3.5,0.3,3.3
		c0.2-0.1,0.3-1.3,0.3-2.7c0-2,0.1-2.6,0.6-3.1c1.6-1.5,2.5-0.4,2.5,2.9c0,1.5,0.2,2.8,0.3,2.9c0.2,0.1,0.3-0.7,0.3-2.4
		c0-3.4,1-4.6,2.8-3.6c0.6,0.3,0.7,0.7,0.7,3.1c0,1.5,0.2,2.8,0.3,2.9c0.7,0.4,0.4-5.5-0.3-6.1c-0.8-0.8-2.3-0.7-3.1,0.1
		c-0.6,0.6-0.6,0.6-1,0c-0.5-0.7-2.1-0.9-2.7-0.2c-0.3,0.3-0.5,0.3-0.8-0.1C217.3,132.1,217.2,133.2,217.2,135.5 M228.2,133
		c-1.6,2-0.2,6,2,6c1,0,2.5-0.6,2.5-1c0-0.3-0.2-0.3-0.7,0c-1.8,0.9-3.5,0.1-3.9-1.8l-0.2-0.9h2.5c2.2,0,2.5-0.1,2.5-0.6
		c0-1.3-1.3-2.5-2.8-2.5C229.2,132.1,228.8,132.3,228.2,133 M234.7,135.4c0,4,0.6,4.7,0.7,1c0.1-3,0-4.2-0.4-4.2
		C234.9,132.1,234.7,133.6,234.7,135.4 M236.2,132.5c-0.2,0.2-0.4,0.6-0.4,0.8c0,0.2,0.2,0.2,0.4-0.1c0.2-0.2,0.8-0.4,1.4-0.4
		s1-0.2,1-0.3C238.5,132,236.7,132,236.2,132.5 M240.7,132.9c-2.3,2.5-0.3,6.8,2.7,5.9c0.6-0.2,1.2-0.5,1.2-0.7
		c0.1-0.3-0.1-0.3-0.9,0c-1.6,0.6-2.8,0.1-3.2-1.4c-0.8-2.6,0.9-4.8,3.1-3.9c0.6,0.2,1,0.3,1,0.1
		C244.7,131.8,241.6,131.9,240.7,132.9 M246.5,135.4c0,1.8,0.2,3.3,0.3,3.5c0.2,0.1,0.3-1,0.3-3.3c0-2.1-0.1-3.5-0.3-3.5
		C246.6,132.1,246.5,133.4,246.5,135.4 M250,132.6c-0.8,0.6-0.4,0.7,1.1,0.1c1.4-0.5,2.2,0,2.2,1.4c0,0.8-0.1,1-1.4,1.1
		c-1.8,0.2-2.9,1.2-2.6,2.4c0.3,1.1,1.6,1.5,2.9,0.9c0.5-0.3,1-0.5,1.2-0.6s0.3,0.2,0.4,0.5c0.1,0.3,0.2-0.7,0.2-2.4
		C254,132.3,252.4,130.9,250,132.6 M262.3,135.6c0,2.2,0.1,3.4,0.3,3.3c0.2-0.1,0.3-1.7,0.3-3.5c0-1.9-0.1-3.3-0.3-3.3
		C262.4,132.1,262.3,133.5,262.3,135.6 M265.1,135.4c0,1.8,0.2,3.3,0.3,3.5c0.2,0.1,0.3-0.7,0.3-2.4c0-2.4,0.1-2.6,0.9-3.3
		c2.1-1.7,3.2-0.5,3.2,3.2c0,1.7,0.1,2.6,0.3,2.4c0.6-0.4,0.4-5.1-0.2-6c-0.6-0.9-2.4-1-3.5-0.2c-0.7,0.5-0.8,0.5-0.8,0
		c0-0.3-0.2-0.5-0.3-0.5C265.2,132.1,265.1,133.4,265.1,135.4 M277.9,132.9c-2.4,2.6-0.2,6.8,3.1,5.9c0.6-0.2,1.2-0.5,1.2-0.8
		c0.1-0.4,0-0.4-0.6-0.1c-1.8,1-3.5,0.2-4-1.8l-0.2-0.9h2.7h2.7l-0.2-0.9C281.9,132.1,279.4,131.3,277.9,132.9 M284.4,135.5
		c0,2.3,0.1,3.5,0.3,3.3c0.2-0.1,0.3-1.3,0.4-2.5c0-2.7,0.5-3.6,2-3.6c0.6,0,1-0.1,1-0.3c0-0.5-1.9-0.4-2.4,0.2
		c-0.4,0.5-0.5,0.5-0.9-0.1C284.4,132,284.4,132.5,284.4,135.5 M290.1,132.5c-0.3,0.2-0.6,0.5-0.6,0.7c0,0.2,0.3,0.1,0.8-0.2
		c1.5-1,3-0.3,3,1.4c0,0.6-0.2,0.8-0.8,0.8c-2.3,0-4,1.4-3.3,2.8c0.5,1,1.8,1.2,3.1,0.5c0.6-0.3,1.1-0.4,1.1-0.2
		c0,0.2,0.2,0.4,0.3,0.4c0.6,0,0.4-4.9-0.2-5.8C292.9,132.1,291.2,131.9,290.1,132.5 M296.4,132.9c-2.3,2.5-0.5,6.6,2.6,5.9
		c0.7-0.2,1.3-0.5,1.4-0.7c0.1-0.3-0.1-0.3-0.9,0c-2.2,0.8-3.9-0.8-3.4-3.3c0.3-1.7,1.6-2.5,3.1-2c1.1,0.4,1.8,0.2,0.9-0.3
		C299.2,131.8,297.2,132.1,296.4,132.9 M307.1,135.4c0,1.8,0.2,3.3,0.3,3.5c0.2,0.1,0.3-1,0.3-3.3c0-2.1-0.1-3.5-0.3-3.5
		C307.2,132.1,307.1,133.4,307.1,135.4 M310.5,133c-1.3,1.7-1,4.6,0.7,5.5c2.3,1.2,4.5-0.3,4.5-3.1
		C315.7,132.4,312.3,130.8,310.5,133 M317.4,135.4c0,1.8,0.2,3.3,0.3,3.5c0.2,0.1,0.3-0.8,0.3-2.6c0-2.7,0-2.8,1-3.3
		c2.3-1.2,3.1-0.2,3.1,3.5c0,1.6,0.1,2.4,0.3,2.3c0.5-0.3,0.4-4.7-0.1-5.7c-0.5-1.1-2.3-1.3-3.5-0.5c-0.7,0.5-0.8,0.5-0.8,0
		c0-0.3-0.2-0.5-0.3-0.5C317.5,132.1,317.4,133.4,317.4,135.4 M325,132.6c-0.9,1.1-0.3,2.4,1.4,3c2.5,0.9,2.3,2.6-0.3,2.5
		c-2-0.1-2.1,0.4-0.2,0.8c3,0.6,4.2-2.7,1.2-3.7c-2.2-0.7-2.5-1.2-1.6-2.2c0.4-0.4,0.9-0.5,1.8-0.3c0.8,0.1,1.1,0.1,1-0.1
		C327.9,132,325.5,132.1,325,132.6 M333.3,136.6c0,2.8,0.1,4.5,0.3,4.5c0.2,0,0.3-0.6,0.3-1.4c0-1.5,0-1.5,1.2-1
		c2,0.9,3.6-0.8,3.6-3.7c0-2.5-2.5-3.9-4.2-2.3c-0.6,0.5-0.6,0.5-0.6,0c0-0.3-0.2-0.6-0.3-0.6C333.4,132.1,333.3,133.9,333.3,136.6
		 M344.4,132.5c-0.7,0.7-0.5,1.1,0.3,0.5c1.5-1,3-0.3,3,1.4c0,0.6-0.2,0.8-0.8,0.8c-2.5,0-4.1,1.5-3.2,3c0.6,1,1.5,1.1,3,0.3
		c0.6-0.3,1-0.4,1-0.2c0,0.2,0.2,0.4,0.3,0.4c0.5,0,0.4-4.5-0.1-5.5C347.5,132.2,345.1,131.8,344.4,132.5 M359.9,133
		c-1.3,1.3-1.2,3.7,0.2,5c3.1,3.1,7-1.9,4.1-5.1C363.2,131.8,361.1,131.8,359.9,133 M367.1,135.6c0,3.3,0,3.4,0.2,1.2
		c0.3-3.5,0.8-4.2,2.9-4c0.3,0,0.6-0.1,0.6-0.3c0-0.7-2-0.4-2.7,0.3l-0.6,0.7l-0.2-0.8C367.2,132.3,367.1,133.6,367.1,135.6
		 M372.2,135.4c0,1.8,0.2,3.3,0.3,3.5c0.2,0.1,0.3-0.8,0.3-2.5c0-2.5,0.1-2.8,0.8-3.3c1.9-1.3,2.7-0.3,2.7,3.3
		c0,1.7,0.1,2.7,0.3,2.5c0.2-0.1,0.3-1.3,0.3-2.7c0-2,0.1-2.6,0.6-3.1c1.7-1.5,2.8-0.1,2.8,3.5c0,1.6,0.1,2.4,0.3,2.3
		c0.5-0.3,0.4-4.7-0.1-5.7c-0.6-1.1-2.4-1.4-3.4-0.5c-0.6,0.6-0.7,0.6-1,0c-0.4-0.8-1.9-0.8-2.8,0c-0.6,0.5-0.6,0.5-0.6,0
		c0-0.3-0.2-0.6-0.3-0.6C372.3,132.1,372.2,133.4,372.2,135.4 M177.8,133.4c1.7,1.7,0.7,5-1.6,5c-1.4,0-2.1-0.7-2.3-2.5
		c-0.2-1.8,0.9-3.4,2.3-3.4C176.6,132.5,177.3,132.9,177.8,133.4 M202.7,132.8c0.8,0.4,1.4,2.4,1.1,3.5c-0.8,3.2-4.6,2.5-4.6-0.8
		C199.3,133,200.8,131.8,202.7,132.8 M231.7,133c1.3,1.2,0.8,1.8-1.4,1.8c-1.8,0-2.1-0.1-2.1-0.7C228.2,132.8,230.5,132,231.7,133
		 M281.2,133c1.6,1.1,1,1.9-1.5,1.9c-2.5,0-2.7-0.3-1.4-1.6C279.3,132.3,280.1,132.3,281.2,133 M314.3,133.2
		c0.8,0.8,0.9,3.3,0.2,4.4c-0.7,1-2.6,1-3.3,0.2C308.9,135.1,311.9,130.7,314.3,133.2 M337.3,133c1,0.7,1.1,3.7,0.2,4.7
		c-0.6,0.7-2.5,0.8-3.2,0.2c-1.4-1.4-0.1-5.4,1.7-5.4C336.3,132.5,336.9,132.7,337.3,133 M363.6,133.1c1.1,0.9,1.1,3.4,0.2,4.5
		c-1.6,1.8-4,0.5-4-2.2C359.8,132.9,361.8,131.7,363.6,133.1 M187.9,134.9c0,0.2,0.7,0.3,1.6,0.3c0.9,0,1.6-0.2,1.6-0.3
		s-0.7-0.3-1.6-0.3C188.6,134.5,187.9,134.7,187.9,134.9 M253.3,136.5c0,1.3-0.6,1.8-2,1.8c-1.9,0-2-1.9-0.1-2.5
		C253,135.4,253.3,135.5,253.3,136.5 M293.3,136.6c0,1.2-0.8,1.7-2.4,1.7c-1.7,0-1.8-1.7-0.1-2.4
		C292.6,135.3,293.3,135.5,293.3,136.6 M347.7,136.3c0,1.7-3,2.9-3.6,1.5c-0.4-1-0.2-1.2,0.9-1.7
		C346.8,135.3,347.7,135.4,347.7,136.3"/>
	<path id="path4" class="st3" d="M517.7,94.6c0,35.5,0,50.1,0.1,32.3c0-17.8,0-46.8,0-64.6C517.8,44.5,517.7,59.1,517.7,94.6
		 M163.2,48c0.3,0.1,0.9,0.1,1.2,0c0.3-0.1,0.1-0.2-0.6-0.2C163.1,47.8,162.8,47.9,163.2,48 M295.1,48c0.3,0.1,0.9,0.1,1.2,0
		c0.3-0.1,0.1-0.2-0.6-0.2C295,47.8,294.8,47.9,295.1,48 M198.7,48.7c1.3,0.1,3.4,0.1,4.7,0c1.3-0.1,0.2-0.1-2.3-0.1
		S197.4,48.6,198.7,48.7 M333.1,55.4l-1,1.1l1.1-1c1-0.9,1.3-1.2,1-1.2C334.1,54.3,333.6,54.8,333.1,55.4 M37.4,56.3
		c0.5,0.1,1.4,0.1,1.9,0c0.5-0.1,0.1-0.1-0.9-0.1C37.4,56.1,36.9,56.2,37.4,56.3 M223.6,56.3c0.6,0.1,1.5,0.1,2.1,0
		c0.5-0.1,0-0.1-1.1-0.1C223.4,56.1,223,56.2,223.6,56.3 M352.3,56.3c0.5,0.1,1.4,0.1,1.9,0c0.5-0.1,0.1-0.1-0.9-0.1
		C352.2,56.1,351.8,56.2,352.3,56.3 M236.8,60.7c0.6,0.7,1.2,1.2,1.3,1.2c0.1,0-0.4-0.5-1-1.2c-0.6-0.7-1.2-1.2-1.3-1.2
		C235.7,59.5,236.2,60,236.8,60.7 M50.8,60.2c0,0.1,0.5,0.6,1.1,1.1l1.1,1l-1-1.1C51.1,60.2,50.8,60,50.8,60.2 M210.8,61.3l-1,1.1
		l1.1-1c0.6-0.6,1.1-1.1,1.1-1.1C212,60,211.7,60.2,210.8,61.3 M135.3,65.8c0,0.9,0.1,1.3,0.1,0.8c0.1-0.5,0.1-1.3,0-1.7
		C135.3,64.4,135.3,64.9,135.3,65.8 M144.6,66.7c0,0.7,0.1,0.9,0.2,0.6c0.1-0.3,0.1-0.9,0-1.2C144.6,65.8,144.6,66,144.6,66.7
		 M241.7,73.6c0,0.7,0.1,0.9,0.2,0.6c0.1-0.3,0.1-0.9,0-1.2C241.8,72.6,241.7,72.9,241.7,73.6 M251.1,92.9c0,11.1,0,15.6,0.1,10.1
		c0.1-5.5,0.1-14.6,0-20.2C251.1,77.2,251.1,81.8,251.1,92.9 M325.8,74.6c0,0.7,0.1,0.9,0.2,0.6c0.1-0.3,0.1-0.9,0-1.2
		C325.8,73.7,325.8,73.9,325.8,74.6 M138.6,76.1c0,0.1,0.5,0.6,1.1,1.1l1.1,1l-1-1.1C138.9,76.1,138.6,75.8,138.6,76.1 M174.2,80.4
		l-0.1,3.9l-9.7,0.1l-9.7,0.1l9.7,0.1c7.8,0.1,9.8,0,9.9-0.4c0.1-0.2,0.1-2.1,0.1-4l-0.1-3.6L174.2,80.4 M269.2,84.2l-1.2,1.3
		l1.3-1.2c0.7-0.7,1.3-1.2,1.3-1.3C270.6,82.7,270.3,83,269.2,84.2 M291.5,84.5c2.7,0.1,7.1,0.1,9.8,0c2.7-0.1,0.5-0.1-4.9-0.1
		S288.8,84.5,291.5,84.5 M132.5,95.1c0,0.9,0.1,1.3,0.1,0.8c0.1-0.5,0.1-1.3,0-1.7C132.6,93.7,132.5,94.2,132.5,95.1 M269.2,106.5
		c0.6,0.7,1.2,1.2,1.3,1.2s-0.4-0.5-1-1.2c-0.6-0.7-1.2-1.2-1.3-1.2C268.1,105.3,268.5,105.8,269.2,106.5 M163.6,129.5
		c-0.1,0.2-0.1,2.5-0.1,4.9l0.1,4.5l0.2-4.9C164,129.1,163.9,128.6,163.6,129.5 M171,134l0.2,4.9l0.1-4.6c0.1-2.5,0-4.7-0.2-4.9
		C171,129.2,170.9,131.3,171,134 M256.2,133.9c0,2.7,0.1,3.9,0.1,2.5c0.1-1.4,0.1-3.6,0-5C256.3,130,256.2,131.1,256.2,133.9
		 M340.6,134c0,2.8,0.1,4,0.1,2.5c0.1-1.5,0.1-3.8,0-5.2C340.7,130,340.6,131.2,340.6,134 M217,135.4c0,1.9,0.1,2.6,0.1,1.6
		c0.1-1,0.1-2.6,0-3.4C217,132.7,217,133.5,217,135.4 M262.1,135.4c0,1.9,0.1,2.6,0.1,1.6c0.1-1,0.1-2.6,0-3.4
		C262.1,132.7,262.1,133.5,262.1,135.4 M274.1,132.4c0.3,0.1,0.9,0.1,1.2,0c0.3-0.1,0.1-0.2-0.6-0.2
		C274,132.2,273.8,132.3,274.1,132.4 M303.7,132.4c0.3,0.1,0.9,0.1,1.2,0c0.3-0.1,0.1-0.2-0.6-0.2S303.4,132.3,303.7,132.4
		 M351.9,132.4c0.3,0.1,0.9,0.1,1.2,0s0.1-0.2-0.6-0.2S351.6,132.3,351.9,132.4 M356.8,132.4c0.3,0.1,0.9,0.1,1.2,0
		c0.3-0.1,0.1-0.2-0.6-0.2C356.7,132.2,356.4,132.3,356.8,132.4 M302.4,135.4c0,1.5,0.1,2.1,0.1,1.3c0.1-0.8,0.1-2.1,0-2.8
		C302.4,133.2,302.4,133.9,302.4,135.4 M350.6,135.2c0,1.4,0.1,2,0.1,1.3c0.1-0.7,0.1-1.9,0-2.6
		C350.7,133.2,350.6,133.8,350.6,135.2 M356.1,135.7c0,1.7,0.1,2.4,0.1,1.6c0.1-0.8,0.1-2.2,0-3.1
		C356.2,133.4,356.1,134,356.1,135.7 M207,136.3c0,1.4,0.1,2,0.1,1.3c0.1-0.7,0.1-1.9,0-2.6C207,134.3,207,134.8,207,136.3
		 M265.9,136.3c0,1.4,0.1,2,0.1,1.3c0.1-0.7,0.1-1.9,0-2.6C265.9,134.3,265.9,134.8,265.9,136.3 M322,136.3c0,1.4,0.1,2,0.1,1.3
		c0.1-0.7,0.1-1.9,0-2.6C322.1,134.3,322,134.8,322,136.3 M380.2,136.3c0,1.4,0.1,2,0.1,1.3c0.1-0.7,0.1-1.9,0-2.6
		C380.3,134.3,380.2,134.8,380.2,136.3 M186.3,136.4c0,1.3,0.1,1.8,0.1,1.1c0.1-0.7,0.1-1.8,0-2.4
		C186.3,134.5,186.3,135.1,186.3,136.4 M221.8,136.4c0,1.3,0.1,1.8,0.1,1.1c0.1-0.7,0.1-1.8,0-2.4
		C221.8,134.5,221.8,135.1,221.8,136.4 M254.1,136.4c0,1.3,0.1,1.8,0.1,1.1c0.1-0.7,0.1-1.8,0-2.4
		C254.2,134.5,254.1,135.1,254.1,136.4 M229.1,134.8c0.6,0.1,1.6,0.1,2.2,0c0.6-0.1,0.1-0.1-1.1-0.1S228.5,134.7,229.1,134.8
		 M278.7,134.8c0.6,0.1,1.6,0.1,2.2,0c0.6-0.1,0.1-0.1-1.1-0.1S278.1,134.7,278.7,134.8"/>
</g>
</svg>
