<?xml version="1.0" encoding="UTF-8"?>
<svg id="Capa_1" data-name="Capa 1" xmlns="http://www.w3.org/2000/svg" version="1.1" xmlns:xlink="http://www.w3.org/1999/xlink" viewBox="0 0 270 75">
  <defs>
    <style>
      .cls-1 {
        fill: url(#Degradado_sin_nombre_9);
        stroke-width: 0px;
      }
    </style>
    <linearGradient id="Degradado_sin_nombre_9" data-name="Degradado sin nombre 9" x1="68.3" y1="108.8" x2="206.9" y2="-29.8" gradientUnits="userSpaceOnUse">
      <stop offset=".3" stop-color="#4a4aff"/>
      <stop offset=".8" stop-color="#00ffa9"/>
    </linearGradient>
  </defs>
  <path class="cls-1" d="M68.4,13l14,38.6,14-38.6h12.3l-17.5,49.1h-17.5L56.1,13h12.3ZM152.5,28.7v7.7c0,3.5-2.8,6.3-6.3,6.3h-25.2v2.4c0,3.5,2.8,6.3,6.3,6.3h21.7v10.5h-24.5c-8.7,0-15.8-7.1-15.8-15.8v-17.5c0-8.7,7.1-15.8,15.8-15.8h12.2c8.7,0,15.8,7.1,15.8,15.8ZM140.3,27.3c0-2.1-1.7-3.8-3.8-3.8h-11.7c-2.1,0-3.8,1.7-3.8,3.8v6.7h19.3v-6.7ZM205.1,24.3v23.8c0,7.7-6.2,13.9-13.9,13.9h-22.1c-6.3,0-11.4-5.1-11.4-11.4v-23.8c0-7.7,6.2-13.9,13.9-13.9h22.1c6.3,0,11.4,5.1,11.4,11.4ZM192.9,27.3c0-2.1-1.7-3.8-3.8-3.8h-15.2c-2.1,0-3.8,1.7-3.8,3.8v20.5c0,2.1,1.7,3.8,3.8,3.8h15.2c2.1,0,3.8-1.7,3.8-3.8v-20.5ZM257.7,62V26.9c0-7.7-6.2-13.9-13.9-13.9h-33.4v49.1h12.3V23.5h19c2.1,0,3.8,1.7,3.8,3.8v34.8h12.3ZM56.1,28.7v7.7c0,3.5-2.8,6.3-6.3,6.3h-25.2v2.4c0,3.5,2.8,6.3,6.3,6.3h21.7v10.5h-24.5c-8.7,0-15.8-7.1-15.8-15.8v-17.5c0-8.7,7.1-15.8,15.8-15.8h12.2c8.7,0,15.8,7.1,15.8,15.8ZM43.8,27.3c0-2.1-1.7-3.8-3.8-3.8h-11.7c-2.1,0-3.8,1.7-3.8,3.8v6.7h19.3v-6.7Z"/>
</svg>