<?xml version="1.0" encoding="utf-8"?>
<!-- Generator: Adobe Illustrator 27.1.1, SVG Export Plug-In . SVG Version: 6.00 Build 0)  -->
<svg version="1.1" id="Capa_1" xmlns="http://www.w3.org/2000/svg" xmlns:xlink="http://www.w3.org/1999/xlink" x="0px" y="0px"
	 viewBox="0 0 339.5 318.3" style="enable-background:new 0 0 339.5 318.3;" xml:space="preserve">
<style type="text/css">
	.st0{fill-rule:evenodd;clip-rule:evenodd;fill:#1529C4;}
	.st1{fill-rule:evenodd;clip-rule:evenodd;fill:#FFFFFF;}
	.st2{fill-rule:evenodd;clip-rule:evenodd;fill:#7D8DFA;}
	.st3{fill-rule:evenodd;clip-rule:evenodd;fill:#C3C3DC;}
</style>
<path class="st0" d="M149.2,35.6C112.1,43.1,86.8,65,75.4,99.4c-6.1,18.5-6.8,29.2-6.8,110.5v76.2h17.5h17.5v-34.9v-34.9l72.2,0.3
	l72.2,0.3l0.4,34.6l0.4,34.6h17.4h17.4v-74.9c0-94.3-1.6-107.8-15.7-131.9C247,44,197.6,25.8,149.2,35.6"/>
<path class="st1" d="M194.5,66.6c38.5,8,52.2,30.5,53.7,88.2l0.8,30.6h-72.9h-72.9l0.6-32.6c0.7-35.2,1.4-39.5,9.1-54.8
	C126.1,72,159.2,59.3,194.5,66.6"/>
<path class="st2" d="M172.4,33.2c2,0.3,5.1,0.3,6.7,0c1.7-0.3,0-0.6-3.7-0.6C171.7,32.6,170.3,32.9,172.4,33.2"/>
<path class="st2" d="M247.8,161.8c0,13.3,0.2,18.6,0.4,11.7c0.2-6.9,0.2-17.8,0-24.2C248,142.9,247.8,148.5,247.8,161.8"/>
<polyline class="st2" points="175,217.2 247.2,217.6 247.6,251.5 248,285.4 248,251.2 247.9,216.9 175.4,216.9 102.8,216.9 
	175,217.2 "/>
<path class="st3" d="M172.4,65.4c2,0.3,5.4,0.3,7.4,0s0.4-0.6-3.7-0.6S170.3,65.1,172.4,65.4"/>
<path class="st3" d="M224.4,81c0,0.2,2,2.2,4.4,4.4l4.4,3.9l-3.9-4.4C225.5,80.9,224.4,79.9,224.4,81"/>
</svg>
