<svg preserveAspectRatio="none" width="100%" height="100%" overflow="visible" style="display: block;" viewBox="0 0 27.0733 27.0733" fill="none" xmlns="http://www.w3.org/2000/svg">
<path id="Vector" d="M11.55 16.3667L8.435 13.2517C8.21367 13.0303 7.94233 12.9197 7.621 12.9197C7.29967 12.9197 7.01511 13.0414 6.76733 13.285C6.54622 13.5114 6.43567 13.7851 6.43567 14.106C6.43567 14.4267 6.54889 14.6977 6.77533 14.919L10.7463 18.9233C10.9754 19.1498 11.2427 19.263 11.548 19.263C11.8533 19.263 12.1219 19.1498 12.3537 18.9233L20.2247 11.0443C20.4736 10.8008 20.598 10.5197 20.598 10.201C20.598 9.88233 20.4736 9.59922 20.2247 9.35167C19.9811 9.13033 19.6931 9.02522 19.3607 9.03633C19.0282 9.04744 18.7493 9.16367 18.524 9.385L11.55 16.3667ZM13.5337 27.0733C11.679 27.0733 9.92856 26.7191 8.28233 26.0107C6.63633 25.3022 5.19867 24.3333 3.96933 23.104C2.74 21.8747 1.77111 20.4373 1.06267 18.792C0.354222 17.1467 0 15.3966 0 13.5417C0 11.6648 0.354222 9.90322 1.06267 8.257C1.77111 6.611 2.73956 5.17878 3.968 3.96033C5.19644 2.74167 6.63356 1.777 8.27933 1.06633C9.92511 0.355444 11.6757 0 13.531 0C15.4083 0 17.1704 0.355221 18.8173 1.06567C20.464 1.77611 21.8963 2.74022 23.1143 3.958C24.3326 5.17578 25.2969 6.60778 26.0073 8.254C26.718 9.90022 27.0733 11.6624 27.0733 13.5407C27.0733 15.3962 26.7179 17.147 26.007 18.793C25.2963 20.439 24.3317 21.8763 23.113 23.105C21.8946 24.3337 20.4627 25.3022 18.8173 26.0107C17.172 26.7191 15.4108 27.0733 13.5337 27.0733ZM13.5327 24.8023C16.6669 24.8023 19.3274 23.7051 21.5143 21.5107C23.701 19.316 24.7943 16.6593 24.7943 13.5407C24.7943 10.4064 23.701 7.74589 21.5143 5.559C19.3274 3.37233 16.6656 2.279 13.5287 2.279C10.414 2.279 7.759 3.37233 5.56367 5.559C3.36856 7.74589 2.271 10.4078 2.271 13.5447C2.271 16.6593 3.36822 19.3143 5.56267 21.5097C7.75733 23.7048 10.414 24.8023 13.5327 24.8023Z" fill="var(--fill-0, black)"/>
</svg>
