<svg preserveAspectRatio="none" width="100%" height="100%" overflow="visible" style="display: block;" viewBox="0 0 84.81 101.92" fill="none" xmlns="http://www.w3.org/2000/svg">
<g id="Group">
<g id="Vector" filter="url(#filter0_d_0_43)">
<path d="M18.48 95.92C15.88 95.92 14.21 94.8 13.28 93.86C12.36 92.97 11.21 91.28 11.21 88.57C11.21 87.57 11.39 86.52 11.77 85.37C12.1 84.36 12.66 83.22 13.59 81.66L25.38 62.42H9.88C7.59 62.42 5.69 61.71 4.25 60.3C2.81 58.94 2 57.07 2 55.07C2 53.26 2.63 50.59 5.61 48.14L58.72 4.42C59.64 3.68 60.55 3.12 61.45 2.72C62.68 2.22 63.79 2 64.88 2C68.14 2 70.7 3.63 71.92 6.46C72.69 8.29 73.16 11.16 71.04 14.54L57.93 35.69H71.05C73.09 35.69 74.93 36.36 76.37 37.63C77.98 39.08 78.81 41.01 78.81 43.25C78.81 46 77.47 48.56 74.81 50.88L26.16 92.69C25.08 93.62 23.91 94.37 22.68 94.93C21.24 95.58 19.84 95.9 18.48 95.9V95.92Z" fill="var(--fill-0, white)"/>
</g>
<path id="Vector_2" d="M73.6 40.77C72.92 40.17 72.06 39.87 71.03 39.87H50.41L67.48 12.32C68.43 10.8 68.63 9.39 68.07 8.1C67.51 6.81 66.44 6.16 64.87 6.16C64.27 6.16 63.69 6.28 63.12 6.53C62.55 6.78 61.96 7.14 61.37 7.63L8.24 51.37C6.85 52.51 6.16 53.75 6.16 55.08C6.16 55.95 6.49 56.7 7.14 57.32C7.79 57.95 8.7 58.26 9.87 58.26H32.81L17.16 83.81C16.43 85 15.94 85.96 15.71 86.68C15.48 87.4 15.36 88.03 15.36 88.57C15.36 89.57 15.65 90.36 16.22 90.91C16.79 91.47 17.54 91.74 18.46 91.74C19.25 91.74 20.07 91.54 20.92 91.15C21.78 90.76 22.61 90.22 23.43 89.54L72.04 47.73C73.75 46.24 74.61 44.74 74.61 43.25C74.61 42.19 74.27 41.36 73.59 40.76L73.6 40.77ZM68.59 44.81L22.63 84.34C22.44 84.5 22.3 84.54 22.22 84.46C22.14 84.38 22.15 84.24 22.26 84.05L40.8 53.77H12.89C12.78 53.77 12.72 53.74 12.71 53.67C12.7 53.6 12.74 53.51 12.85 53.4L60.97 13.8C61.05 13.75 61.13 13.74 61.19 13.78C61.26 13.82 61.26 13.88 61.21 13.96L42.34 44.36H68.5C68.64 44.36 68.72 44.4 68.74 44.48C68.77 44.56 68.71 44.67 68.58 44.81H68.59Z" fill="var(--fill-0, black)"/>
</g>
<defs>
<filter id="filter0_d_0_43" x="0" y="0" width="84.81" height="101.92" filterUnits="userSpaceOnUse" color-interpolation-filters="sRGB">
<feFlood flood-opacity="0" result="BackgroundImageFix"/>
<feColorMatrix in="SourceAlpha" type="matrix" values="0 0 0 0 0 0 0 0 0 0 0 0 0 0 0 0 0 0 127 0" result="hardAlpha"/>
<feOffset dx="2" dy="2"/>
<feGaussianBlur stdDeviation="2"/>
<feColorMatrix type="matrix" values="0 0 0 0 0 0 0 0 0 0 0 0 0 0 0 0 0 0 0.35 0"/>
<feBlend mode="normal" in2="BackgroundImageFix" result="effect1_dropShadow_0_43"/>
<feBlend mode="normal" in="SourceGraphic" in2="effect1_dropShadow_0_43" result="shape"/>
</filter>
</defs>
</svg>
