<svg preserveAspectRatio="none" width="100%" height="100%" overflow="visible" style="display: block;" viewBox="0 0 104 101.735" fill="none" xmlns="http://www.w3.org/2000/svg">
<g id="Group">
<g id="Vector" filter="url(#filter0_d_0_29)">
<path d="M50 95.7247C43.3339 95.7247 37.037 94.5472 31.299 92.242C25.5609 89.9069 20.5015 86.5838 16.2304 82.3626C11.9692 78.1314 8.61622 73.1119 6.2711 67.4337C3.91601 61.7455 2.72848 55.4985 2.72848 48.8724C2.72848 45.7988 2.98794 42.785 3.50686 39.8811L2 39.6915V26.3094L5.70229 25.9002C6.65031 25.7904 7.60832 25.6906 8.58628 25.6008C10.6919 21.7688 13.2565 18.336 16.2304 15.3721C20.4815 11.1609 25.5509 7.83784 31.289 5.5027C37.0071 3.17755 43.304 2 50 2C56.6961 2 62.983 3.17755 68.701 5.5027C74.459 7.83784 79.5185 11.1609 83.7497 15.3721C86.7435 18.3559 89.3181 21.7888 91.4037 25.6008C92.3817 25.6906 93.3497 25.7904 94.2977 25.9002L98 26.3094V39.7015L96.4832 39.8911C97.0021 42.825 97.2615 45.8287 97.2615 48.8823C97.2615 55.5085 96.064 61.7555 93.7189 67.4437C91.3439 73.1318 87.9909 78.1513 83.7397 82.3726C79.4985 86.5938 74.4391 89.9168 68.701 92.252C62.953 94.5672 56.6661 95.7347 50 95.7347V95.7247Z" fill="var(--fill-0, white)"/>
</g>
<g id="Group_2">
<path id="Vector_2" d="M49.9987 66.8854C44.58 66.8854 39.1414 64.9894 33.6927 61.1973L31.168 64.8596C37.375 69.2006 43.652 71.3661 49.9987 71.3661C56.3455 71.3661 62.6224 69.2006 68.8295 64.8596L66.3048 61.1973C60.8561 64.9894 55.4174 66.8854 49.9987 66.8854Z" fill="var(--fill-0, black)"/>
<path id="Vector_3" d="M93.8375 30.0421C92.2009 29.8426 90.5044 29.6929 88.7681 29.5631C86.7223 25.3519 84.0978 21.5898 80.8246 18.3365C76.9427 14.4846 72.3822 11.5008 67.1431 9.36522C61.894 7.23965 56.1859 6.17188 49.9988 6.17188C43.8117 6.17188 38.1036 7.23965 32.8545 9.36522C27.6155 11.4908 23.045 14.4846 19.173 18.3365C15.8999 21.5898 13.2753 25.3519 11.2296 29.5631C9.50319 29.6929 7.80673 29.8525 6.16016 30.0421V36.0197C7.20797 36.1394 7.95641 36.4488 8.42544 36.9278C7.40756 40.69 6.88864 44.6717 6.88864 48.8729C6.88864 55.0002 7.96639 60.6584 10.1219 65.8476C12.2774 71.0367 15.2911 75.5573 19.173 79.4093C23.045 83.2613 27.6155 86.2451 32.8545 88.3806C38.1036 90.5062 43.8117 91.574 49.9988 91.574C56.1859 91.574 61.894 90.5062 67.1431 88.3806C72.3822 86.255 76.9527 83.2613 80.8246 79.4093C84.6965 75.5573 87.7202 71.0367 89.8758 65.8476C92.0313 60.6584 93.109 55.0002 93.109 48.8729C93.109 44.6717 92.5901 40.69 91.5722 36.9278C92.0412 36.4488 92.7797 36.1394 93.8375 36.0197V30.0421ZM22.6757 21.5199C26.1186 18.0871 30.1602 15.4226 34.8105 13.5066C39.4608 11.6006 44.5202 10.6426 49.9988 10.6426C55.4774 10.6426 60.5768 11.6006 65.2271 13.5066C69.8774 15.4226 73.919 18.0871 77.3419 21.5199C79.6271 23.8051 81.5531 26.3997 83.1697 29.2338C81.0541 29.154 79.0783 29.1041 77.2421 29.1041C73.6595 29.1041 70.2367 29.2039 66.9735 29.4135C63.7103 29.613 60.6466 29.8226 57.8026 30.0222C54.9585 30.2318 52.3539 30.3315 49.9988 30.3315C46.4762 30.3315 42.4046 30.132 37.7843 29.7228C33.1639 29.3137 28.1543 29.1141 22.7556 29.1141C20.9294 29.1141 18.9535 29.154 16.8379 29.2438C18.4545 26.4097 20.3805 23.8251 22.6757 21.5299V21.5199ZM68.2109 35.7802C68.2109 36.6783 67.7319 37.337 66.7839 37.776C65.5664 38.3449 64.8479 39.4625 64.6283 41.1091C64.4387 42.4064 63.7202 43.065 62.4728 43.065C61.2254 43.065 60.5568 42.4164 60.5568 41.1091C60.5568 39.9216 60.8462 38.754 61.415 37.6363C61.9839 36.5087 62.7123 35.5806 63.5905 34.8521C64.4687 34.1236 65.3568 33.7544 66.255 33.7544C66.7938 33.7544 67.2529 33.954 67.6421 34.3432C68.0213 34.7324 68.2109 35.2214 68.2109 35.7902V35.7802ZM25.1107 35.7802C25.1107 36.6783 24.6317 37.337 23.6836 37.776C22.4662 38.3449 21.7477 39.4625 21.5281 41.1091C21.3385 42.4064 20.62 43.065 19.3726 43.065C18.1252 43.065 17.4566 42.4164 17.4566 41.1091C17.4566 39.9216 17.746 38.754 18.3148 37.6363C18.8836 36.5087 19.6121 35.5806 20.4903 34.8521C21.3685 34.1236 22.2566 33.7544 23.1548 33.7544C23.6936 33.7544 24.1527 33.954 24.5419 34.3432C24.9211 34.7324 25.1107 35.2214 25.1107 35.7902V35.7802ZM77.3419 76.216C73.909 79.6488 69.8774 82.3133 65.2271 84.2293C60.5768 86.1353 55.4974 87.0933 49.9988 87.0933C44.5003 87.0933 39.4508 86.1353 34.7905 84.2293C30.1302 82.3133 26.0787 79.6488 22.6558 76.216C19.2229 72.7831 16.5585 68.7415 14.6425 64.0812C13.1456 60.4189 12.2575 56.507 11.9281 52.3457C13.0358 54.0721 14.5527 55.3794 16.4687 56.2775C19.0333 57.475 22.4762 58.0638 26.8171 58.0638C31.1581 58.0638 34.8005 57.1457 37.6745 55.2995C40.5485 53.4534 42.4845 50.8288 43.4924 47.406L43.9015 46.0189C44.8995 42.6259 45.8175 40.3507 46.6458 39.1831C47.4741 38.0155 48.5918 37.4367 49.9988 37.4367C51.4059 37.4367 52.5236 38.0255 53.3518 39.1831C54.1801 40.3507 55.0982 42.6259 56.0961 46.0189L56.5053 47.406C57.5032 50.8189 59.4491 53.4534 62.3431 55.2995C65.2271 57.1457 68.8396 58.0638 73.1805 58.0638C77.5215 58.0638 80.9643 57.465 83.529 56.2775C85.445 55.3893 86.9618 54.0721 88.0695 52.3457C87.7502 56.507 86.8521 60.4288 85.3552 64.0812C83.4392 68.7415 80.7747 72.7931 77.3419 76.216Z" fill="var(--fill-0, black)"/>
</g>
</g>
<defs>
<filter id="filter0_d_0_29" x="0" y="0" width="104" height="101.735" filterUnits="userSpaceOnUse" color-interpolation-filters="sRGB">
<feFlood flood-opacity="0" result="BackgroundImageFix"/>
<feColorMatrix in="SourceAlpha" type="matrix" values="0 0 0 0 0 0 0 0 0 0 0 0 0 0 0 0 0 0 127 0" result="hardAlpha"/>
<feOffset dx="2" dy="2"/>
<feGaussianBlur stdDeviation="2"/>
<feColorMatrix type="matrix" values="0 0 0 0 0 0 0 0 0 0 0 0 0 0 0 0 0 0 0.35 0"/>
<feBlend mode="normal" in2="BackgroundImageFix" result="effect1_dropShadow_0_29"/>
<feBlend mode="normal" in="SourceGraphic" in2="effect1_dropShadow_0_29" result="shape"/>
</filter>
</defs>
</svg>
