<?xml version="1.0" encoding="UTF-8"?>
<svg id="Layer_2" data-name="Layer 2" xmlns="http://www.w3.org/2000/svg" xmlns:xlink="http://www.w3.org/1999/xlink" viewBox="0 0 89 107">
  <defs>
    <style>
      .cls-1 {
        fill: #fff;
        filter: url(#drop-shadow-1);
      }
    </style>
    <filter id="drop-shadow-1" x="0" y="0" width="89" height="107" filterUnits="userSpaceOnUse">
      <feOffset dx="2" dy="2"/>
      <feGaussianBlur result="blur" stdDeviation="2"/>
      <feFlood flood-color="#000" flood-opacity=".35"/>
      <feComposite in2="blur" operator="in"/>
      <feComposite in="SourceGraphic"/>
    </filter>
  </defs>
  <g id="Content">
    <g>
      <path class="cls-1" d="M20.66,98.79c-2.6,0-4.27-1.12-5.2-2.06-.92-.89-2.07-2.58-2.07-5.29,0-1,.18-2.05.56-3.2.33-1.01.89-2.15,1.82-3.71l11.79-19.24h-15.5c-2.29,0-4.19-.71-5.63-2.12-1.44-1.36-2.25-3.23-2.25-5.23,0-1.81.63-4.48,3.61-6.93L60.9,7.29c.92-.74,1.83-1.3,2.73-1.7,1.23-.5,2.34-.72,3.43-.72,3.26,0,5.82,1.63,7.04,4.46.77,1.83,1.24,4.7-.88,8.08l-13.11,21.15h13.12c2.04,0,3.88.67,5.32,1.94,1.61,1.45,2.44,3.38,2.44,5.62,0,2.75-1.34,5.31-4,7.63l-48.65,41.81c-1.08.93-2.25,1.68-3.48,2.24-1.44.65-2.84.97-4.2.97Z"/>
      <path d="M75.78,43.64c-.68-.6-1.54-.9-2.57-.9h-20.62l17.07-27.55c.95-1.52,1.15-2.93.59-4.22-.56-1.29-1.63-1.94-3.2-1.94-.6,0-1.18.12-1.75.37s-1.16.61-1.75,1.1L10.42,54.24c-1.39,1.14-2.08,2.38-2.08,3.71,0,.87.33,1.62.98,2.24.65.63,1.56.94,2.73.94h22.94l-15.65,25.55c-.73,1.19-1.22,2.15-1.45,2.87-.23.72-.35,1.35-.35,1.89,0,1,.29,1.79.86,2.34.57.56,1.32.83,2.24.83.79,0,1.61-.2,2.46-.59.86-.39,1.69-.93,2.51-1.61l48.61-41.81c1.71-1.49,2.57-2.99,2.57-4.48,0-1.06-.34-1.89-1.02-2.49ZM70.77,47.68l-45.96,39.53c-.19.16-.33.2-.41.12s-.07-.22.04-.41l18.54-30.28H15.07c-.11,0-.17-.03-.18-.1-.01-.07.03-.16.14-.27L63.15,16.67c.08-.05.16-.06.22-.02.07.04.07.1.02.18l-18.87,30.4h26.16c.14,0,.22.04.24.12.03.08-.03.19-.16.33Z"/>
    </g>
  </g>
</svg>