<svg width="114" height="114" viewBox="0 0 114 114" fill="none" xmlns="http://www.w3.org/2000/svg">
<g filter="url(#filter0_d_12673_16813)">
<path d="M103.566 53.6982C102.87 54.4185 102.113 55.0766 101.282 55.6355C102.101 56.5172 102.821 57.4858 103.441 58.5538C104.857 60.9879 105.577 63.6703 105.577 66.5141C105.577 71.4691 103.578 75.7783 99.8168 78.9698C98.2775 80.2738 96.5521 81.2921 94.6529 82.0496C94.0819 83.2915 93.4612 84.5085 92.7785 85.6882C93.4984 86.2719 94.1315 87.0294 94.6653 87.9236C95.6211 89.5752 96.1177 91.4877 96.1177 93.6236C96.1177 95.7596 95.6211 97.6721 94.6653 99.3113C93.2502 101.721 91.0282 103.087 88.5579 103.087C86.0877 103.087 83.8161 101.72 82.4134 99.3237C82.2024 98.9512 82.0037 98.5662 81.8424 98.1688C79.1983 100.243 76.3184 102.006 73.2151 103.447C67.505 106.104 61.2735 107.458 54.6945 107.458C48.6616 107.458 42.8894 106.315 37.5517 104.068C34.2001 102.652 31.0719 100.864 28.2169 98.7401C27.5093 101.298 25.3122 103.049 22.5564 103.049C20.5827 103.049 18.6959 102.205 16.9456 100.553C15.7787 99.4479 14.7609 98.144 13.9416 96.6786C12.9361 94.8779 12.452 93.2138 12.452 91.5746C12.452 90.3327 12.7623 89.1903 13.3209 88.2464C12.7375 88.321 12.1292 88.3582 11.5086 88.3582C9.59691 88.3582 7.8715 88.0353 6.35708 87.3896C2.42206 85.7255 2 82.6954 2 81.4784C2 80.2613 2.42206 77.1816 6.43156 75.5547C7.92115 74.9587 9.62173 74.6482 11.5086 74.6482C11.6575 74.6482 11.819 74.6482 11.9679 74.6482C11.0493 71.1089 10.59 67.4082 10.59 63.5957C10.59 57.5107 11.7445 51.7236 14.0409 46.3961C16.3001 41.1058 19.4903 36.3992 23.4998 32.3881C24.555 31.3325 25.6597 30.339 26.8142 29.3952C25.9825 29.5815 25.1012 29.6808 24.195 29.6808C21.613 29.6808 19.3289 28.9481 17.4049 27.4952C15.1208 25.769 13.8547 23.3474 13.8547 20.665C13.8547 17.9826 15.1208 15.5982 17.4049 13.8721C19.3289 12.4315 21.613 11.6864 24.195 11.6864C26.777 11.6864 29.0113 12.4315 30.923 13.8721C33.2194 15.5982 34.4732 18.0074 34.4732 20.665C34.4732 22.2546 34.0387 23.7448 33.1946 25.0612C34.5849 24.2664 36.0373 23.5461 37.5269 22.9127C41.797 21.0872 46.3279 19.982 51.045 19.6218C51.3305 18.678 51.7898 17.7218 52.4352 16.7159C53.3538 15.2878 54.5703 13.959 56.0475 12.7793C59.1012 10.3328 61.9066 9.14063 64.6003 9.14063C68.3243 9.14063 71.0179 11.8106 71.0179 15.4741C71.0179 16.1074 70.9435 16.7283 70.8069 17.3368L87.6269 8.83017C88.111 7.38963 88.9303 6.08569 90.0475 4.95561C91.984 3.01832 94.4791 2 97.2472 2C100.015 2 102.498 3.01832 104.435 4.95561C106.371 6.89289 107.389 9.38903 107.389 12.1584C107.389 14.9277 106.371 17.4238 104.435 19.3611C103.715 20.0813 102.895 20.6774 102.026 21.1369L96.1797 42.9562C97.4955 42.3974 98.7368 42.1118 99.9657 42.1118C103.479 42.1118 106.11 44.67 106.11 48.0354C106.11 50.0347 105.266 51.9348 103.566 53.6858V53.6982Z" fill="white"/>
</g>
<path d="M14.7112 80.162C13.8175 79.8018 12.7499 79.6156 11.5086 79.6156C10.2672 79.6156 9.19971 79.8018 8.30595 80.162C7.41219 80.5221 6.96533 80.9692 6.96533 81.4783C6.96533 81.9875 7.41219 82.447 8.30595 82.8196C9.19971 83.2045 10.2672 83.3908 11.5086 83.3908C12.7499 83.3908 13.8175 83.2045 14.7112 82.8196C15.605 82.447 16.0519 81.9875 16.0519 81.4783C16.0519 80.9692 15.605 80.5221 14.7112 80.162Z" fill="black"/>
<path d="M20.62 91.5125C19.8131 90.7426 19.0684 90.3576 18.3732 90.3576C17.7401 90.3576 17.4174 90.7674 17.4174 91.587C17.4174 92.3445 17.7029 93.2387 18.2863 94.2694C18.8573 95.3001 19.5524 96.1943 20.3593 96.9518C21.1662 97.7093 21.8986 98.0943 22.5689 98.0943C23.2392 98.0943 23.5248 97.6969 23.5248 96.9146C23.5248 96.1322 23.2392 95.2629 22.6806 94.2322C22.122 93.2014 21.4393 92.2948 20.6324 91.5249L20.62 91.5125Z" fill="black"/>
<path d="M20.3965 23.5337C21.4392 24.316 22.7054 24.7134 24.195 24.7134C25.6845 24.7134 26.9011 24.316 27.9438 23.5337C28.9865 22.7513 29.5078 21.7951 29.5078 20.665C29.5078 19.5349 28.9865 18.6408 27.9438 17.846C26.9011 17.0636 25.6473 16.6662 24.195 16.6662C22.7426 16.6662 21.4392 17.0636 20.3965 17.846C19.3538 18.6284 18.8324 19.5722 18.8324 20.665C18.8324 21.7578 19.3538 22.7389 20.3965 23.5337Z" fill="black"/>
<path d="M25.6225 65.1232C24.8156 64.3533 24.0707 63.9683 23.3756 63.9683C22.7425 63.9683 22.4198 64.3781 22.4198 65.1977C22.4198 65.9552 22.7053 66.8494 23.2887 67.8801C23.8598 68.9109 24.5549 69.805 25.3617 70.5625C26.1686 71.32 26.901 71.705 27.5713 71.705C28.2416 71.705 28.5271 71.3076 28.5271 70.5253C28.5271 69.7429 28.2416 68.8736 27.683 67.8429C27.1244 66.8121 26.4417 65.9055 25.6348 65.1356L25.6225 65.1232Z" fill="black"/>
<path d="M40.6923 48.1844C38.4455 48.1844 36.4594 48.9543 34.7339 50.5066C33.0085 52.0589 31.8292 54.1204 31.1837 56.691L35.5532 57.7839C35.9753 56.2067 36.6455 54.9773 37.5765 54.0831C38.4951 53.189 39.5378 52.742 40.6923 52.742C41.8467 52.742 42.815 53.1766 43.6963 54.0335C44.5777 54.9028 45.2107 56.0825 45.608 57.5976L49.9775 56.4178C49.3444 53.9341 48.1775 51.9347 46.5017 50.4321C44.8259 48.9295 42.8894 48.1844 40.7047 48.1844H40.6923Z" fill="black"/>
<path d="M38.9171 76.6972C38.284 76.6972 37.5641 77.0822 36.7572 77.8397C35.9503 78.5973 35.2552 79.4914 34.6718 80.5221C34.0759 81.5529 33.7904 82.4594 33.7904 83.2542C33.7904 84.049 34.1132 84.4339 34.7463 84.4339C35.3793 84.4339 36.1489 84.0614 36.9558 83.3163C37.7626 82.5712 38.4454 81.6894 39.0289 80.6587C39.5999 79.628 39.8978 78.7215 39.8978 77.9267C39.8978 77.6783 39.8357 77.4175 39.7116 77.1319C39.5874 76.8462 39.3268 76.6972 38.942 76.6972H38.9171Z" fill="black"/>
<path d="M46.6009 33.456C45.8065 33.456 45.1734 33.7417 44.6644 34.3005C44.1679 34.8593 43.9197 35.5548 43.9197 36.3744C43.9197 37.5293 44.3913 38.5973 45.3472 39.5784C46.303 40.5594 47.3209 41.0562 48.4133 41.0562C49.1953 41.0562 49.8408 40.783 50.3498 40.2117C50.8463 39.6529 51.0945 38.9574 51.0945 38.1378C51.0945 36.9829 50.6352 35.9149 49.7042 34.9339C48.7732 33.9528 47.7429 33.456 46.5885 33.456H46.6009Z" fill="black"/>
<path d="M57.2391 23.2604C58.7907 23.2604 60.5783 22.416 62.6016 20.7147C64.8981 18.7401 66.0525 17.0015 66.0525 15.4865C66.0525 14.5799 65.5684 14.1204 64.6002 14.1204C63.0857 14.1204 61.261 14.9649 59.1507 16.6662C58.0956 17.5107 57.2391 18.4296 56.606 19.4231C55.9729 20.4042 55.6501 21.2486 55.6501 21.9441C55.6501 22.8258 56.184 23.2604 57.2391 23.2604Z" fill="black"/>
<path d="M95.286 57.0512C94.566 56.6041 93.8088 56.2688 93.0268 56.0204C92.4061 52.8165 91.3882 49.7491 89.9979 46.8432L97.9176 17.2996C99.0845 17.1754 100.09 16.6911 100.922 15.859C101.927 14.8531 102.424 13.6237 102.424 12.1707C102.424 10.7178 101.927 9.48834 100.922 8.48244C99.9285 7.48896 98.6996 6.97981 97.2472 6.97981C95.7949 6.97981 94.5536 7.48896 93.5605 8.48244C92.5551 9.48834 92.0585 10.7178 92.0585 12.1707L65.0348 25.8311H65.0099C61.6832 24.9245 58.2571 24.4526 54.6945 24.4526C49.2947 24.4526 44.2301 25.4709 39.4882 27.4951C34.7463 29.5194 30.5879 32.326 27.0129 35.9025C23.4378 39.479 20.6324 43.6392 18.609 48.3582C16.5732 53.0897 15.5677 58.1688 15.5677 63.5957C15.5677 69.0226 16.5857 74.0521 18.609 78.7587C20.6448 83.4777 23.4378 87.6007 27.0129 91.1524C30.5879 94.704 34.7463 97.4734 39.4882 99.4728C44.2301 101.472 49.2947 102.478 54.6945 102.478C60.5784 102.478 66.0526 101.298 71.1297 98.9263C76.2067 96.5544 80.5638 93.3008 84.2009 89.153C87.118 85.8248 89.3648 82.0993 90.9785 78.0136C93.126 77.4672 95.0004 76.5358 96.6142 75.1698C99.283 72.9096 100.611 70.0285 100.611 66.5016C100.611 64.5271 100.127 62.714 99.1589 61.0499C98.1907 59.3859 96.8997 58.0447 95.2983 57.0512H95.286ZM67.5422 29.5815L89.3773 32.4005L87.8876 37.6783L69.1932 35.2691C68.014 33.7789 66.934 32.1645 65.9658 30.4011L67.5422 29.5815ZM86.8822 41.2052L85.5167 46.0111C80.75 44.7072 76.6412 42.5215 73.1406 39.4542L86.8822 41.2052ZM93.635 15.9211C93.7467 16.0329 93.8585 16.1322 93.9702 16.2192L92.8902 20.0192L87.2049 19.2865L93.635 15.9211ZM81.5692 22.2422L91.8847 23.5709L90.3827 28.8612L73.1779 26.6259L81.5692 22.2422ZM93.7219 72.2887C91.8599 73.7416 89.4145 74.4743 86.3856 74.4743H60.9136C60.9756 74.3501 61.0501 74.226 61.1121 74.0894C61.3852 73.4436 61.5218 72.7606 61.5218 72.0651C61.5218 70.252 60.8018 68.7618 59.3619 67.6317C57.922 66.4892 56.0599 65.9304 53.7883 65.9304V70.4756C54.7937 70.4756 55.5883 70.7115 56.1717 71.1834C56.7675 71.6553 57.053 72.2887 57.053 73.071C57.053 73.6423 56.8668 74.2508 56.482 74.8717C56.0972 75.4927 55.6255 75.9646 55.0545 76.2998C55.9606 76.7842 56.6309 77.3306 57.053 77.9391C57.475 78.5476 57.6861 79.1809 57.6861 79.8515C57.6861 80.7581 57.3261 81.5032 56.5937 82.0744C55.8613 82.6457 54.9304 82.9438 53.7759 82.9438V87.4889C56.1344 87.4889 58.1453 86.7811 59.7715 85.3778C61.41 83.9745 62.2294 82.2483 62.2294 80.2117C62.2294 79.628 62.1425 79.0816 62.0059 78.5724H85.3181C83.8161 81.677 81.892 84.5085 79.5087 87.0543C76.3557 90.4321 72.6565 93.0896 68.4112 95.0394C64.1658 96.9766 59.5977 97.9453 54.6821 97.9453C49.7664 97.9453 45.5335 97.0511 41.4122 95.2629C37.291 93.4746 33.6663 91.0033 30.5506 87.849C27.4349 84.6947 24.9771 81.0561 23.2144 76.9083C21.4393 72.773 20.5579 68.3396 20.5579 63.6081C20.5579 58.8767 21.4393 54.4309 23.1895 50.2583C24.9522 46.0857 27.3976 42.4098 30.5258 39.2058C33.6663 36.0018 37.291 33.5057 41.4122 31.705C45.5335 29.9044 49.9526 28.9978 54.6821 28.9978C56.1965 28.9978 57.6861 29.0972 59.1385 29.2958C59.5854 29.3579 60.0198 29.4449 60.4666 29.5194C65.854 41.1307 74.4689 48.2589 86.336 50.904C86.9815 52.5184 87.478 54.1577 87.838 55.8093C86.2864 56.1819 84.9084 56.9518 83.7416 58.144C82.0409 59.8702 81.1969 61.9441 81.1969 64.3781C81.1969 66.5637 81.9417 68.4265 83.4189 69.9664C84.9085 71.5187 86.6588 72.2887 88.6945 72.2887C90.42 72.2887 91.8599 71.7298 93.0143 70.6246C94.1688 69.5193 94.7398 68.1285 94.7398 66.4644C94.7398 64.8872 94.1812 63.5709 93.0764 62.5029C91.9716 61.4473 90.6434 60.9133 89.1041 60.9133V64.3284C89.6751 64.3284 90.1717 64.5395 90.5813 64.9493C90.9909 65.3591 91.1895 65.8683 91.1895 66.4768C91.1895 67.1102 90.9661 67.6317 90.5068 68.0416C90.0475 68.4514 89.4517 68.6501 88.6945 68.6501C87.6642 68.6501 86.7953 68.2527 86.1001 67.4455C85.405 66.6383 85.0574 65.6199 85.0574 64.3781C85.0574 62.9872 85.5167 61.8447 86.4229 60.963C87.3291 60.0813 88.5332 59.6466 90.0103 59.6466C91.8599 59.6466 93.3992 60.3048 94.6529 61.5964C95.8942 62.9003 96.5149 64.5395 96.5149 66.5141C96.5149 68.9108 95.5839 70.8357 93.7219 72.2887Z" fill="black"/>
<path d="M68.5975 48.1844C66.4127 48.1844 64.4886 48.9295 62.8004 50.4321C61.1122 51.9347 59.9578 53.9217 59.3247 56.4178L63.6942 57.5976C64.1163 56.0825 64.7618 54.8903 65.6307 54.0335C66.4996 53.1642 67.4926 52.742 68.6098 52.742C69.727 52.742 70.807 53.189 71.7504 54.0831C72.6938 54.9773 73.3517 56.2191 73.749 57.7839L78.1185 56.691C77.4854 54.1204 76.3061 52.0589 74.5683 50.5066C72.8428 48.9667 70.8566 48.1844 68.6098 48.1844H68.5975Z" fill="black"/>
<path d="M88.5579 89.1157C87.8255 89.1157 87.2048 89.5504 86.6959 90.4321C86.1745 91.3138 85.9263 92.3694 85.9263 93.6112C85.9263 94.8531 86.1869 95.9211 86.6959 96.7904C87.2172 97.6721 87.8379 98.1067 88.5579 98.1067C89.2779 98.1067 89.8613 97.6721 90.3703 96.7904C90.8916 95.9086 91.1399 94.8531 91.1399 93.6112C91.1399 92.3694 90.8792 91.3014 90.3703 90.4321C89.8489 89.5504 89.253 89.1157 88.5579 89.1157Z" fill="black"/>
<path d="M99.9658 47.0915C99.2086 47.0915 98.3149 47.3772 97.2846 47.936C96.2543 48.4949 95.3481 49.1778 94.5785 49.9602C93.8089 50.755 93.4241 51.4877 93.4241 52.1831C93.4241 52.8165 93.8212 53.1394 94.6033 53.1394C95.3853 53.1394 96.2916 52.8537 97.3094 52.2949C98.3273 51.7361 99.2211 51.053 99.9907 50.2458C100.76 49.4386 101.145 48.706 101.145 48.0354C101.145 47.3648 100.748 47.0791 99.9658 47.0791V47.0915Z" fill="black"/>
<defs>
<filter id="filter0_d_12673_16813" x="0" y="0" width="113.389" height="113.458" filterUnits="userSpaceOnUse" color-interpolation-filters="sRGB">
<feFlood flood-opacity="0" result="BackgroundImageFix"/>
<feColorMatrix in="SourceAlpha" type="matrix" values="0 0 0 0 0 0 0 0 0 0 0 0 0 0 0 0 0 0 127 0" result="hardAlpha"/>
<feOffset dx="2" dy="2"/>
<feGaussianBlur stdDeviation="2"/>
<feColorMatrix type="matrix" values="0 0 0 0 0 0 0 0 0 0 0 0 0 0 0 0 0 0 0.35 0"/>
<feBlend mode="normal" in2="BackgroundImageFix" result="effect1_dropShadow_12673_16813"/>
<feBlend mode="normal" in="SourceGraphic" in2="effect1_dropShadow_12673_16813" result="shape"/>
</filter>
</defs>
</svg>
