<svg preserveAspectRatio="none" width="100%" height="100%" overflow="visible" style="display: block;" viewBox="0 0 19.0733 27.0733" fill="none" xmlns="http://www.w3.org/2000/svg">
<path id="Vector" d="M6.47767 21.716C5.84544 21.716 5.30756 21.4942 4.864 21.0507C4.42044 20.6071 4.19867 20.0692 4.19867 19.437V17.435C2.86844 16.5243 1.83611 15.3642 1.10167 13.9547C0.367222 12.5453 0 11.0432 0 9.44833C0 6.81967 0.929333 4.58778 2.788 2.75267C4.64667 0.917554 6.89878 0 9.54433 0C12.1897 0 14.4391 0.926554 16.2927 2.77967C18.1464 4.63278 19.0733 6.887 19.0733 9.54233C19.0733 11.1392 18.7027 12.6319 17.9613 14.0203C17.22 15.4088 16.1884 16.547 14.8667 17.435V19.437C14.8667 20.0692 14.6443 20.6071 14.1997 21.0507C13.7548 21.4942 13.2201 21.716 12.5957 21.716H6.47767ZM6.63633 19.445H12.429V16.9963C12.429 16.7948 12.4731 16.619 12.5613 16.469C12.6496 16.319 12.7711 16.1799 12.926 16.0517L13.7007 15.5157C14.6807 14.835 15.4426 13.9668 15.9863 12.911C16.5303 11.8552 16.8023 10.7298 16.8023 9.53467C16.8023 7.51022 16.0984 5.79356 14.6907 4.38467C13.2829 2.97555 11.5636 2.271 9.53267 2.271C7.50178 2.271 5.78244 2.98167 4.37467 4.403C2.96689 5.82433 2.263 7.54644 2.263 9.56933C2.263 10.7671 2.535 11.8889 3.079 12.9347C3.62278 13.9807 4.38656 14.8419 5.37033 15.5183L6.13933 16.0517C6.29422 16.1799 6.41578 16.3199 6.504 16.4717C6.59222 16.6234 6.63633 16.7983 6.63633 16.9963V19.445ZM6.742 27.0733C6.41956 27.0733 6.15111 26.9637 5.93667 26.7443C5.722 26.525 5.61467 26.2536 5.61467 25.93C5.61467 25.6064 5.722 25.3389 5.93667 25.1273C6.15111 24.916 6.41956 24.8103 6.742 24.8103H12.3567C12.6784 24.8103 12.9481 24.92 13.1657 25.1393C13.3832 25.3587 13.492 25.6301 13.492 25.9537C13.492 26.277 13.3832 26.5444 13.1657 26.756C12.9481 26.9676 12.6784 27.0733 12.3567 27.0733H6.742Z" fill="var(--fill-0, black)"/>
</svg>
