<svg preserveAspectRatio="none" width="100%" height="100%" overflow="visible" style="display: block;" viewBox="0 0 1025 683.67" fill="none" xmlns="http://www.w3.org/2000/svg">
<g id="Group">
<path id="Vector" d="M38.4261 493.54H0.5V417.687H38.4261V379.761H0.5V265.983H38.4261V228.057H0.5V114.278H38.4261V76.3522H0.5V38.4261H38.4261V0.5H190.131V38.4261H228.057V0.5H607.313V38.4261H645.239V0.5H796.943V38.4261H834.869V0.5H948.648H948.642H986.569V38.4261H948.642V114.278M38.4261 493.54V455.613H76.3523V493.54H38.4261ZM38.4261 493.54V531.466H0.5V569.392H76.3523M76.3523 569.392V531.466H114.278V569.392H76.3523ZM76.3523 569.392V645.244H38.4261V683.17H190.131V645.244H228.057V683.17H493.534V645.244H531.46V683.17H834.864V645.244H872.79V683.17H986.569V645.244H1024.49V607.318H986.569V569.392H1024.49V455.613H986.569V417.687H1024.49V303.909H986.569V265.983H1024.49V190.131H986.569M986.569 190.131V228.057H948.642V190.131H986.569ZM986.569 190.131V152.204H1024.49V114.278H948.642M948.642 114.278V152.204H910.716V114.278H948.642ZM948.648 531.46H910.722V493.534H948.648V531.46ZM76.3523 152.204H114.278V190.131H76.3523V152.204ZM379.761 38.4261V76.3522H341.835V38.4261H379.761ZM76.3523 38.4261H114.278V76.3522H76.3523V38.4261ZM38.4261 303.904H76.3523V341.83H38.4261V303.904ZM114.278 645.239V607.313H152.205V645.239H114.278ZM303.909 645.239V607.313H341.835V645.239H303.909ZM721.091 645.239V607.313H759.017V645.239H721.091ZM948.648 645.239H910.722V607.313H948.648V645.239ZM986.574 379.756H948.648V341.83H986.574V379.756ZM910.722 76.3522H872.796V38.4261H910.722V76.3522Z" stroke="url(#paint0_linear_0_46)" stroke-miterlimit="10"/>
<path id="Vector_2" d="M1024.5 38.4262H986.573V76.3523H1024.5V38.4262Z" stroke="url(#paint1_linear_0_46)" stroke-miterlimit="10"/>
<path id="Vector_3" d="M38.4261 607.312H0.5V645.239H38.4261V607.312Z" stroke="url(#paint2_linear_0_46)" stroke-miterlimit="10"/>
</g>
<defs>
<linearGradient id="paint0_linear_0_46" x1="920.471" y1="749.801" x2="104.534" y2="-66.1363" gradientUnits="userSpaceOnUse">
<stop stop-color="#FF0000"/>
<stop offset="1" stop-color="#FFFF00"/>
</linearGradient>
<linearGradient id="paint1_linear_0_46" x1="1024.77" y1="76.6191" x2="986.307" y2="38.1594" gradientUnits="userSpaceOnUse">
<stop stop-color="#FF0000"/>
<stop offset="1" stop-color="#FFFF00"/>
</linearGradient>
<linearGradient id="paint2_linear_0_46" x1="38.6929" y1="645.505" x2="0.233144" y2="607.046" gradientUnits="userSpaceOnUse">
<stop stop-color="#FF0000"/>
<stop offset="1" stop-color="#FFFF00"/>
</linearGradient>
</defs>
</svg>
