<svg width="48" height="48" viewBox="0 0 48 48" fill="none" xmlns="http://www.w3.org/2000/svg">
  <!-- Background rectangle with shadow -->
  <rect x="2" y="5" width="44" height="36" rx="1" fill="white" filter="url(#shadow3)"/>
  <!-- Film/TV icon detail -->
  <g transform="translate(2, 6)">
    <path d="M0 0V33.1744H44.2325V0H0ZM16.8789 20.5288H8.88269C8.76058 19.769 8.37162 19.0905 7.7113 18.4935C7.0555 17.8965 6.30924 17.5392 5.47253 17.4171V8.40328C6.30924 8.2676 7.0555 7.90125 7.7113 7.30425C8.3671 6.70725 8.76058 6.03788 8.88269 5.2871H16.8789V20.5288ZM18.7242 2.21163H25.5083V30.9628H18.7242V2.21163ZM27.3491 5.29162H35.3453C35.481 6.0424 35.879 6.71177 36.5348 7.30877C37.1906 7.90578 37.9323 8.27212 38.7555 8.4078V17.4217C37.9323 17.5438 37.1906 17.9056 36.5348 18.4981C35.879 19.0951 35.481 19.7735 35.3453 20.5333H27.3491V5.29162ZM27.3491 25.8204H42.0209V27.4803H27.3491V25.8204ZM42.0164 23.6088H27.3446V21.9489H36.5212C36.5212 20.9313 36.8831 20.1082 37.5977 19.4886C38.3168 18.8689 39.1716 18.5569 40.1711 18.5569V7.25902C39.1761 7.25902 38.3213 6.94695 37.5977 6.32733C36.8785 5.70772 36.5212 4.8891 36.5212 3.86696H27.3446V2.2071H42.0164V23.6043V23.6088ZM2.21163 2.21163H16.8834V3.87148H7.70677C7.70677 4.89362 7.34495 5.71224 6.63036 6.33186C5.91124 6.95147 5.05644 7.26354 4.05691 7.26354V18.5614C5.05192 18.5614 5.90672 18.8735 6.63036 19.4931C7.34948 20.1127 7.70677 20.9313 7.70677 21.9535H16.8834V23.6133H2.21163V2.21163ZM16.8789 25.8204V27.4803H2.21163V25.8204H16.8834H16.8789ZM2.21163 29.321H16.8834V30.9628H2.21163V29.321ZM27.3491 30.9628V29.321H42.0209V30.9628H27.3491Z" fill="#1a1a1a"/>
    <path d="M7.66637 11.5737V12.5325H8.55283C8.53926 12.6049 8.53474 12.6772 8.53474 12.7451V13.1793C8.53474 13.2516 8.53926 13.3285 8.55283 13.4009L7.66637 13.4552V14.4321H8.67947C8.88751 15.5989 9.33527 16.4944 10.0227 17.1141C10.7102 17.7337 11.5378 18.0458 12.5102 18.0458C13.0756 18.0458 13.5957 17.9191 14.0661 17.6658C14.5364 17.4126 14.9525 17.0598 15.3098 16.6075L14.1837 15.5763C13.7404 16.1643 13.2203 16.4628 12.6188 16.4628C12.1394 16.4628 11.7368 16.2864 11.4112 15.9291C11.0856 15.5718 10.8549 15.0743 10.7192 14.4366H13.5595V13.3873H10.5745V12.5416H14.2063V11.4923H10.6876C10.8233 10.8048 11.0539 10.2802 11.3886 9.91836C11.7188 9.55654 12.1303 9.37563 12.6233 9.37563C12.9037 9.37563 13.1615 9.43895 13.3967 9.57011C13.6319 9.70127 13.8445 9.88218 14.0435 10.1128L15.1696 9.00929C14.8621 8.62937 14.4912 8.33087 14.0525 8.11378C13.6183 7.89669 13.166 7.79266 12.7002 7.79266C11.669 7.79266 10.7916 8.11378 10.0725 8.76053C9.35336 9.40729 8.89204 10.3254 8.67947 11.5149L7.66637 11.5873V11.5737Z" fill="#1a1a1a"/>
  </g>
  <defs>
    <filter id="shadow3" x="0" y="3" width="52" height="44" filterUnits="userSpaceOnUse" color-interpolation-filters="sRGB">
      <feFlood flood-opacity="0" result="BackgroundImageFix"/>
      <feColorMatrix in="SourceAlpha" type="matrix" values="0 0 0 0 0 0 0 0 0 0 0 0 0 0 0 0 0 0 127 0" result="hardAlpha"/>
      <feOffset dx="2" dy="2"/>
      <feGaussianBlur stdDeviation="2"/>
      <feColorMatrix type="matrix" values="0 0 0 0 0 0 0 0 0 0 0 0 0 0 0 0 0 0 0.35 0"/>
      <feBlend mode="normal" in2="BackgroundImageFix" result="effect1_dropShadow"/>
      <feBlend mode="normal" in="SourceGraphic" in2="effect1_dropShadow" result="shape"/>
    </filter>
  </defs>
</svg>
