<svg preserveAspectRatio="none" width="100%" height="100%" overflow="visible" style="display: block;" viewBox="0 0 56 57.6478" fill="none" xmlns="http://www.w3.org/2000/svg">
<g id="Group">
<g id="Vector" filter="url(#filter0_d_0_107)">
<path d="M4.47173 51.6478C3.69151 51.6478 2.97371 51.3097 2.51599 50.7272C2.24031 50.3787 1.81899 49.6297 2.08427 48.5374L3.90477 41.3177L4.63818 40.1058C4.59136 40.059 4.54975 40.0174 4.50294 39.9706C3.2858 38.6806 2.84368 37.0422 3.21298 35.2112L5.18433 25.5574C5.4392 24.3246 6.07898 23.1543 7.07766 22.0724C8.05033 21.0321 9.15303 20.2727 10.3754 19.7942L18.9578 16.4184L27.6806 2L35.8469 6.86856L28.6689 18.8059L42.4787 25.5418H43.3994C44.9286 25.5418 47.0664 26.1763 48.5644 29.1828C49.5163 31.0969 50 33.5156 50 36.3764C50 39.2372 49.5163 41.5778 48.5644 43.4399C47.0768 46.3527 44.9338 46.9665 43.3994 46.9665C42.5515 46.9665 41.7817 46.9041 41.1107 46.7845C40.6894 46.7012 40.2317 46.6648 39.7271 46.6648C39.2226 46.6648 38.666 46.7429 38.0783 46.9041C37.1108 47.159 36.0289 47.2838 34.8534 47.2838C33.527 47.2838 32.3047 47.1018 31.1292 46.7324C30.0629 46.3944 29.0226 45.8898 28.0239 45.2292C27.15 45.9418 26.115 46.3111 24.9758 46.3111C24.2216 46.3111 23.4674 46.1395 22.682 45.7858C22.6664 45.8066 22.6508 45.8326 22.63 45.8534C21.6937 47.1226 20.3049 47.7935 18.6197 47.7935C17.6054 47.7935 16.5287 47.4711 15.3272 46.8001C14.4793 46.3215 13.6523 45.7338 12.8669 45.0472L12.0867 46.3371L6.19861 51.0028C5.81371 51.2785 5.21554 51.6478 4.46133 51.6478H4.47173Z" fill="white"/>
</g>
<path id="Vector_2" d="M46.6242 30.1502C45.8179 28.5274 44.7464 27.7107 43.4045 27.7107H41.9845L25.5895 19.7213L32.8715 7.61754L28.4191 4.97001L20.4349 18.1765L11.1659 21.8227C10.2452 22.1764 9.41821 22.7538 8.67441 23.5496C7.9358 24.3506 7.47807 25.1672 7.30643 25.9995L5.33508 35.6429C5.10621 36.7717 5.35068 37.7183 6.06848 38.4725C6.4846 38.9095 7.00474 39.2059 7.61331 39.3932L5.93324 42.1708L4.19596 49.0575C4.12314 49.3384 4.21677 49.4788 4.47164 49.4788C4.57046 49.4788 4.72651 49.4008 4.93977 49.2447L10.4481 44.8807L12.5183 41.4478C12.5183 41.4478 12.5183 41.4478 12.5235 41.4478C12.9136 42.0043 13.3765 42.5453 13.9331 43.0654C14.7185 43.804 15.5351 44.4178 16.3934 44.8963C17.2464 45.3749 17.9954 45.6193 18.63 45.6193C19.6183 45.6193 20.3725 45.2656 20.8978 44.5582C21.3399 43.9653 21.5792 43.2839 21.652 42.5297C22.2502 42.9978 22.7651 43.3619 23.176 43.596C23.821 43.9549 24.4244 44.1369 24.9861 44.1369C25.86 44.1369 26.5934 43.7624 27.1812 43.0134C27.384 42.7585 27.5349 42.4776 27.6701 42.1968C28.1174 42.5921 28.5647 42.951 29.0069 43.2579C29.9015 43.8872 30.8326 44.3554 31.7948 44.6571C32.7571 44.9639 33.7818 45.1148 34.8689 45.1148C35.8728 45.1148 36.757 45.0108 37.5268 44.8079C38.2967 44.605 39.0353 44.501 39.7427 44.501C40.3928 44.501 40.9806 44.5478 41.5111 44.6519C42.0417 44.7507 42.6711 44.8027 43.4097 44.8027C44.7673 44.8027 45.844 44.0225 46.6398 42.462C47.4356 40.9016 47.8361 38.8782 47.8361 36.392C47.8361 33.9057 47.4356 31.7835 46.6294 30.1606L46.6242 30.1502ZM7.88379 36.9745C7.64452 36.7769 7.55609 36.4856 7.62892 36.1059L9.60026 26.4624C9.68349 26.0255 9.96957 25.5573 10.4481 25.0632C10.9266 24.5691 11.452 24.2102 12.0189 23.9813L18.4635 21.4482L8.90327 37.2606C8.44554 37.2398 8.10225 37.1462 7.88899 36.9745H7.88379ZM19.3478 43.1226C19.1917 43.3775 18.9525 43.5023 18.6248 43.5023C18.2555 43.5023 17.7613 43.3047 17.1424 42.9094C16.6066 42.5661 16.0761 42.1396 15.5507 41.6506C15.9928 41.5726 16.4402 41.453 16.8875 41.2865C17.4909 41.0629 18.1618 40.7352 18.9005 40.3086C18.9265 40.3294 18.9525 40.3399 18.9785 40.3607C19.1709 40.6259 19.3166 40.912 19.4154 41.2189C19.5194 41.5518 19.5714 41.8743 19.5714 42.1812C19.5714 42.5505 19.4934 42.8574 19.3374 43.1122L19.3478 43.1226ZM24.9861 42.0199C24.7469 42.0199 24.3828 41.8691 23.9042 41.5622C23.4257 41.2605 22.8275 40.7872 22.1253 40.1526C21.6832 39.7469 21.2775 39.414 20.8874 39.1123C21.1579 38.9615 21.4023 38.8418 21.6104 38.7534C22.0421 38.5714 22.4322 38.4777 22.7859 38.4777C23.2801 38.4777 23.7898 38.6546 24.31 39.0083C24.7573 39.31 25.3086 39.8093 25.9484 40.4803C25.9328 40.8548 25.8496 41.2033 25.6883 41.505C25.5063 41.8431 25.2722 42.0147 24.9913 42.0147L24.9861 42.0199ZM44.8557 40.7404C44.424 41.8899 43.9402 42.4672 43.4045 42.4672C42.9259 42.4672 42.3642 42.4152 41.7192 42.3164C41.0742 42.2176 40.4136 42.1656 39.7375 42.1656C38.8896 42.1656 38.0574 42.2696 37.246 42.4724C36.4345 42.6753 35.6387 42.7793 34.8637 42.7793C33.5061 42.7793 32.2734 42.4776 31.1655 41.8795C30.0576 41.2761 28.8716 40.2722 27.6129 38.8574C26.7494 37.8952 25.9484 37.2034 25.2046 36.7821C24.466 36.3607 23.6546 36.1475 22.7807 36.1475C22.1722 36.1475 21.5168 36.2775 20.8198 36.5376C20.1176 36.7977 19.2802 37.2398 18.3075 37.864C17.3868 38.4413 16.6378 38.847 16.0501 39.0811C15.4623 39.3152 14.8901 39.4296 14.3232 39.4296C13.7146 39.4296 13.2517 39.2996 12.9344 39.0395C12.6171 38.7794 12.4559 38.4153 12.4559 37.9472C12.4559 37.8484 12.7159 37.4999 13.2309 36.8965C13.7458 36.2983 14.3076 35.747 14.9161 35.2528L19.9615 31.1645C20.3725 30.842 20.773 30.6079 21.1683 30.4779C21.5636 30.3427 22.0889 30.275 22.7391 30.275H28.4399V27.9448H22.7391C21.8705 27.9448 21.1163 28.0488 20.4557 28.2517L24.388 21.7135L41.4331 30.0462H43.4045C43.7426 30.0462 44.0703 30.3271 44.3927 30.894C44.71 31.461 44.9753 32.2204 45.1886 33.1827C45.4018 34.1449 45.5059 35.2112 45.5059 36.3815C45.5059 38.1344 45.2926 39.5856 44.8609 40.7352L44.8557 40.7404Z" fill="#1a1a1a"/>
</g>
<defs>
<filter id="filter0_d_0_107" x="3.1856e-09" y="0" width="56" height="57.6478" filterUnits="userSpaceOnUse" color-interpolation-filters="sRGB">
<feFlood flood-opacity="0" result="BackgroundImageFix"/>
<feColorMatrix in="SourceAlpha" type="matrix" values="0 0 0 0 0 0 0 0 0 0 0 0 0 0 0 0 0 0 127 0" result="hardAlpha"/>
<feOffset dx="2" dy="2"/>
<feGaussianBlur stdDeviation="2"/>
<feColorMatrix type="matrix" values="0 0 0 0 0 0 0 0 0 0 0 0 0 0 0 0 0 0 0.35 0"/>
<feBlend mode="normal" in2="BackgroundImageFix" result="effect1_dropShadow_0_107"/>
<feBlend mode="normal" in="SourceGraphic" in2="effect1_dropShadow_0_107" result="shape"/>
</filter>
</defs>
</svg>
