<svg preserveAspectRatio="none" width="100%" height="100%" overflow="visible" style="display: block;" viewBox="0 0 56 54.8674" fill="none" xmlns="http://www.w3.org/2000/svg">
<g id="Group">
<g id="Vector" filter="url(#filter0_d_0_118)">
<path d="M26 48.8624C22.6669 48.8624 19.5185 48.2736 16.6495 47.121C13.7805 45.9534 11.2507 44.2919 9.11518 42.1813C6.98462 40.0657 5.30811 37.5559 4.13555 34.7168C2.958 31.8728 2.36424 28.7493 2.36424 25.4362C2.36424 23.8994 2.49397 22.3925 2.75343 20.9405L2 20.8457V14.1547L3.85114 13.9501C4.32516 13.8952 4.80416 13.8453 5.29314 13.8004C6.34595 11.8844 7.62827 10.168 9.11518 8.68607C11.2407 6.58046 13.7755 4.91892 16.6445 3.75135C19.5035 2.58877 22.652 2 26 2C29.348 2 32.4915 2.58877 35.3505 3.75135C38.2295 4.91892 40.7593 6.58046 42.8748 8.68607C44.3717 10.178 45.659 11.8944 46.7019 13.8004C47.1909 13.8453 47.6748 13.8952 48.1489 13.9501L50 14.1547V20.8507L49.2416 20.9455C49.501 22.4125 49.6308 23.9143 49.6308 25.4412C49.6308 28.7543 49.032 31.8778 47.8595 34.7218C46.6719 37.5659 44.9954 40.0757 42.8699 42.1863C40.7493 44.2969 38.2195 45.9584 35.3505 47.126C32.4765 48.2836 29.3331 48.8674 26 48.8674V48.8624Z" fill="white"/>
</g>
<g id="Group_2">
<path id="Vector_2" d="M25.9993 34.4424C23.29 34.4424 20.5706 33.4943 17.8463 31.5983L16.5839 33.4295C19.6875 35.6 22.8259 36.6827 25.9993 36.6827C29.1727 36.6827 32.3112 35.6 35.4147 33.4295L34.1523 31.5983C31.428 33.4943 28.7087 34.4424 25.9993 34.4424Z" fill="#1a1a1a"/>
<path id="Vector_3" d="M47.9189 16.0207C47.1006 15.9209 46.2523 15.846 45.3841 15.7812C44.3613 13.6756 43.049 11.7945 41.4124 10.1679C39.4715 8.24189 37.1912 6.75 34.5717 5.68222C31.9471 4.61944 29.0931 4.08555 25.9995 4.08555C22.906 4.08555 20.0519 4.61944 17.4274 5.68222C14.8078 6.74501 12.5226 8.24189 10.5866 10.1679C8.95005 11.7945 7.63779 13.6756 6.61492 15.7812C5.75172 15.846 4.90348 15.9259 4.0802 16.0207V19.0095C4.60411 19.0693 4.97833 19.224 5.21284 19.4635C4.7039 21.3446 4.44444 23.3354 4.44444 25.4361C4.44444 28.4997 4.98332 31.3288 6.06107 33.9234C7.13883 36.518 8.64569 38.7783 10.5866 40.7043C12.5226 42.6302 14.8078 44.1221 17.4274 45.1899C20.0519 46.2527 22.906 46.7866 25.9995 46.7866C29.0931 46.7866 31.9471 46.2527 34.5717 45.1899C37.1912 44.1271 39.4765 42.6302 41.4124 40.7043C43.3484 38.7783 44.8602 36.518 45.938 33.9234C47.0158 31.3288 47.5546 28.4997 47.5546 25.4361C47.5546 23.3354 47.2952 21.3446 46.7862 19.4635C47.0207 19.224 47.39 19.0693 47.9189 19.0095V16.0207ZM12.338 11.7596C14.0594 10.0431 16.0802 8.71091 18.4054 7.75291C20.7305 6.79989 23.2602 6.32089 25.9995 6.32089C28.7388 6.32089 31.2885 6.79989 33.6137 7.75291C35.9388 8.71091 37.9596 10.0431 39.6711 11.7596C40.8137 12.9022 41.7767 14.1995 42.585 15.6165C41.5272 15.5766 40.5392 15.5517 39.6212 15.5517C37.8299 15.5517 36.1185 15.6016 34.4869 15.7063C32.8553 15.8061 31.3234 15.9109 29.9014 16.0107C28.4794 16.1155 27.1771 16.1654 25.9995 16.1654C24.2382 16.1654 22.2024 16.0656 19.8923 15.861C17.5821 15.6564 15.0773 15.5567 12.3779 15.5567C11.4648 15.5567 10.4769 15.5766 9.41908 15.6215C10.2274 14.2045 11.1904 12.9122 12.338 11.7646V11.7596ZM35.1056 18.8897C35.1056 19.3388 34.8661 19.6681 34.392 19.8876C33.7833 20.172 33.4241 20.7309 33.3143 21.5542C33.2195 22.2028 32.8602 22.5321 32.2365 22.5321C31.6128 22.5321 31.2785 22.2078 31.2785 21.5542C31.2785 20.9604 31.4232 20.3766 31.7076 19.8178C31.9921 19.2539 32.3563 18.7899 32.7954 18.4257C33.2345 18.0614 33.6785 17.8768 34.1276 17.8768C34.397 17.8768 34.6266 17.9766 34.8212 18.1712C35.0108 18.3658 35.1056 18.6103 35.1056 18.8947V18.8897ZM13.5555 18.8897C13.5555 19.3388 13.316 19.6681 12.8419 19.8876C12.2332 20.172 11.874 20.7309 11.7642 21.5542C11.6694 22.2028 11.3101 22.5321 10.6864 22.5321C10.0627 22.5321 9.72843 22.2078 9.72843 21.5542C9.72843 20.9604 9.87313 20.3766 10.1575 19.8178C10.4419 19.2539 10.8062 18.7899 11.2453 18.4257C11.6844 18.0614 12.1284 17.8768 12.5775 17.8768C12.8469 17.8768 13.0765 17.9766 13.2711 18.1712C13.4607 18.3658 13.5555 18.6103 13.5555 18.8947V18.8897ZM39.6711 39.1076C37.9546 40.824 35.9388 42.1562 33.6137 43.1142C31.2885 44.0673 28.7488 44.5463 25.9995 44.5463C23.2503 44.5463 20.7255 44.0673 18.3954 43.1142C16.0652 42.1562 14.0395 40.824 12.328 39.1076C10.6116 37.3912 9.27937 35.3704 8.32136 33.0402C7.57292 31.209 7.12885 29.2531 6.96419 27.1725C7.51804 28.0357 8.27646 28.6893 9.23446 29.1384C10.5168 29.7371 12.2382 30.0315 14.4087 30.0315C16.5792 30.0315 18.4004 29.5725 19.8374 28.6494C21.2744 27.7263 22.2424 26.414 22.7463 24.7026L22.9509 24.009C23.4498 22.3126 23.9089 21.1749 24.323 20.5912C24.7372 20.0074 25.296 19.718 25.9995 19.718C26.7031 19.718 27.2619 20.0124 27.676 20.5912C28.0902 21.1749 28.5492 22.3126 29.0482 24.009L29.2528 24.7026C29.7517 26.409 30.7247 27.7263 32.1717 28.6494C33.6137 29.5725 35.4199 30.0315 37.5904 30.0315C39.7609 30.0315 41.4823 29.7321 42.7646 29.1384C43.7226 28.6943 44.481 28.0357 45.0349 27.1725C44.8752 29.2531 44.4261 31.214 43.6777 33.0402C42.7197 35.3704 41.3875 37.3962 39.6711 39.1076Z" fill="#1a1a1a"/>
</g>
</g>
<defs>
<filter id="filter0_d_0_118" x="0" y="0" width="56" height="54.8674" filterUnits="userSpaceOnUse" color-interpolation-filters="sRGB">
<feFlood flood-opacity="0" result="BackgroundImageFix"/>
<feColorMatrix in="SourceAlpha" type="matrix" values="0 0 0 0 0 0 0 0 0 0 0 0 0 0 0 0 0 0 127 0" result="hardAlpha"/>
<feOffset dx="2" dy="2"/>
<feGaussianBlur stdDeviation="2"/>
<feColorMatrix type="matrix" values="0 0 0 0 0 0 0 0 0 0 0 0 0 0 0 0 0 0 0.35 0"/>
<feBlend mode="normal" in2="BackgroundImageFix" result="effect1_dropShadow_0_118"/>
<feBlend mode="normal" in="SourceGraphic" in2="effect1_dropShadow_0_118" result="shape"/>
</filter>
</defs>
</svg>
