<?xml version="1.0" encoding="UTF-8"?>
<svg id="Layer_2" data-name="Layer 2" xmlns="http://www.w3.org/2000/svg" xmlns:xlink="http://www.w3.org/1999/xlink" viewBox="0 0 106.13 81.7">
  <defs>
    <style>
      .cls-1 {
        filter: url(#drop-shadow-1);
      }

      .cls-2 {
        fill: #fff;
      }
    </style>
    <filter id="drop-shadow-1" x="-4.73" y="-4.26" width="119" height="94" filterUnits="userSpaceOnUse">
      <feOffset dx="2" dy="2"/>
      <feGaussianBlur result="blur" stdDeviation="2"/>
      <feFlood flood-color="#000" flood-opacity=".35"/>
      <feComposite in2="blur" operator="in"/>
      <feComposite in="SourceGraphic"/>
    </filter>
  </defs>
  <g id="Content">
    <g>
      <g class="cls-1">
        <rect class="cls-2" width="106.13" height="81.7"/>
      </g>
      <g>
        <path d="M21.12,29.77v2.12h1.96c-.03.16-.04.32-.04.47v.96c0,.16.01.33.04.49l-1.96.12v2.16h2.24c.46,2.58,1.45,4.56,2.97,5.93,1.52,1.37,3.35,2.06,5.5,2.06,1.25,0,2.4-.28,3.44-.84,1.04-.56,1.96-1.34,2.75-2.34l-2.49-2.28c-.98,1.3-2.13,1.96-3.46,1.96-1.06,0-1.95-.39-2.67-1.18-.72-.79-1.23-1.89-1.53-3.3h6.28v-2.32h-6.6v-1.87h8.03v-2.32h-7.78c.3-1.52.81-2.68,1.55-3.48.73-.8,1.64-1.2,2.73-1.2.62,0,1.19.14,1.71.43.52.29.99.69,1.43,1.2l2.49-2.44c-.68-.84-1.5-1.5-2.47-1.98-.96-.48-1.96-.71-2.99-.71-2.28,0-4.22.71-5.81,2.14-1.59,1.43-2.61,3.46-3.08,6.09l-2.24.16Z"/>
        <path d="M4.17,4.18v73.35h97.8V4.18H4.17ZM41.49,49.57h-17.68c-.27-1.68-1.13-3.18-2.59-4.5-1.45-1.32-3.1-2.11-4.95-2.38v-19.93c1.85-.3,3.5-1.11,4.95-2.43,1.45-1.32,2.32-2.8,2.59-4.46h17.68v33.7ZM45.57,9.07h15v63.57h-15V9.07ZM64.64,15.88h17.68c.3,1.66,1.18,3.14,2.63,4.46,1.45,1.32,3.09,2.13,4.91,2.43v19.93c-1.82.27-3.46,1.07-4.91,2.38-1.45,1.32-2.33,2.82-2.63,4.5h-17.68V15.88ZM64.64,61.27h32.44v3.67h-32.44v-3.67ZM97.07,56.38h-32.44v-3.67h20.29c0-2.25.8-4.07,2.38-5.44,1.59-1.37,3.48-2.06,5.69-2.06v-24.98c-2.2,0-4.09-.69-5.69-2.06-1.59-1.37-2.38-3.18-2.38-5.44h-20.29v-3.67h32.44v47.31ZM9.06,9.07h32.44v3.67h-20.29c0,2.26-.8,4.07-2.38,5.44-1.59,1.37-3.48,2.06-5.69,2.06v24.98c2.2,0,4.09.69,5.69,2.06,1.59,1.37,2.38,3.18,2.38,5.44h20.29v3.67H9.06V9.07ZM41.49,61.27v3.67H9.06v-3.67h32.44ZM9.06,69.01h32.44v3.63H9.06v-3.63ZM64.64,72.64v-3.63h32.44v3.63h-32.44Z"/>
      </g>
    </g>
  </g>
</svg>