<?xml version="1.0" encoding="UTF-8"?>
<svg id="Layer_2" data-name="Layer 2" xmlns="http://www.w3.org/2000/svg" xmlns:xlink="http://www.w3.org/1999/xlink" viewBox="0 0 109 107">
  <defs>
    <style>
      .cls-1 {
        fill: #fff;
        filter: url(#drop-shadow-1);
      }
    </style>
    <filter id="drop-shadow-1" x="0" y="0" width="109" height="107" filterUnits="userSpaceOnUse">
      <feOffset dx="2" dy="2"/>
      <feGaussianBlur result="blur" stdDeviation="2"/>
      <feFlood flood-color="#000" flood-opacity=".35"/>
      <feComposite in2="blur" operator="in"/>
      <feComposite in="SourceGraphic"/>
    </filter>
  </defs>
  <g id="Content">
    <g>
      <path class="cls-1" d="M52.68,98.22c-6.68,0-12.99-1.18-18.74-3.49-5.75-2.34-10.82-5.67-15.1-9.9-4.27-4.24-7.63-9.27-9.98-14.96-2.36-5.7-3.55-11.96-3.55-18.6,0-3.08.26-6.1.78-9.01l-1.51-.19v-13.41l3.71-.41c.95-.11,1.91-.21,2.89-.3,2.11-3.84,4.68-7.28,7.66-10.25,4.26-4.22,9.34-7.55,15.09-9.89,5.73-2.33,12.04-3.51,18.75-3.51s13.01,1.18,18.74,3.51c5.77,2.34,10.84,5.67,15.08,9.89,3,2.99,5.58,6.43,7.67,10.25.98.09,1.95.19,2.9.3l3.71.41v13.42l-1.52.19c.52,2.94.78,5.95.78,9.01,0,6.64-1.2,12.9-3.55,18.6-2.38,5.7-5.74,10.73-10,14.96-4.25,4.23-9.32,7.56-15.07,9.9-5.76,2.32-12.06,3.49-18.74,3.49Z"/>
      <g>
        <path d="M52.68,69.32c-5.43,0-10.88-1.9-16.34-5.7l-2.53,3.67c6.22,4.35,12.51,6.52,18.87,6.52s12.65-2.17,18.87-6.52l-2.53-3.67c-5.46,3.8-10.91,5.7-16.34,5.7Z"/>
        <path d="M96.61,32.4c-1.64-.2-3.34-.35-5.08-.48-2.05-4.22-4.68-7.99-7.96-11.25-3.89-3.86-8.46-6.85-13.71-8.99-5.26-2.13-10.98-3.2-17.18-3.2s-11.92,1.07-17.18,3.2c-5.25,2.13-9.83,5.13-13.71,8.99-3.28,3.26-5.91,7.03-7.96,11.25-1.73.13-3.43.29-5.08.48v5.99c1.05.12,1.8.43,2.27.91-1.02,3.77-1.54,7.76-1.54,11.97,0,6.14,1.08,11.81,3.24,17.01,2.16,5.2,5.18,9.73,9.07,13.59,3.88,3.86,8.46,6.85,13.71,8.99,5.26,2.13,10.98,3.2,17.18,3.2s11.92-1.07,17.18-3.2c5.25-2.13,9.83-5.13,13.71-8.99,3.88-3.86,6.91-8.39,9.07-13.59,2.16-5.2,3.24-10.87,3.24-17.01,0-4.21-.52-8.2-1.54-11.97.47-.48,1.21-.79,2.27-.91v-5.99ZM25.3,23.86c3.45-3.44,7.5-6.11,12.16-8.03,4.66-1.91,9.73-2.87,15.22-2.87s10.6.96,15.26,2.87c4.66,1.92,8.71,4.59,12.14,8.03,2.29,2.29,4.22,4.89,5.84,7.73-2.12-.08-4.1-.13-5.94-.13-3.59,0-7.02.1-10.29.31-3.27.2-6.34.41-9.19.61-2.85.21-5.46.31-7.82.31-3.53,0-7.61-.2-12.24-.61-4.63-.41-9.65-.61-15.06-.61-1.83,0-3.81.04-5.93.13,1.62-2.84,3.55-5.43,5.85-7.73ZM70.93,38.15c0,.9-.48,1.56-1.43,2-1.22.57-1.94,1.69-2.16,3.34-.19,1.3-.91,1.96-2.16,1.96s-1.92-.65-1.92-1.96c0-1.19.29-2.36.86-3.48.57-1.13,1.3-2.06,2.18-2.79.88-.73,1.77-1.1,2.67-1.1.54,0,1,.2,1.39.59.38.39.57.88.57,1.45ZM27.74,38.15c0,.9-.48,1.56-1.43,2-1.22.57-1.94,1.69-2.16,3.34-.19,1.3-.91,1.96-2.16,1.96s-1.92-.65-1.92-1.96c0-1.19.29-2.36.86-3.48.57-1.13,1.3-2.06,2.18-2.79.88-.73,1.77-1.1,2.67-1.1.54,0,1,.2,1.39.59.38.39.57.88.57,1.45ZM80.08,78.67c-3.44,3.44-7.48,6.11-12.14,8.03-4.66,1.91-9.75,2.87-15.26,2.87s-10.57-.96-15.24-2.87c-4.67-1.92-8.73-4.59-12.16-8.03-3.44-3.44-6.11-7.49-8.03-12.16-1.5-3.67-2.39-7.59-2.72-11.76,1.11,1.73,2.63,3.04,4.55,3.94,2.57,1.2,6.02,1.79,10.37,1.79s8-.92,10.88-2.77c2.88-1.85,4.82-4.48,5.83-7.91l.41-1.39c1-3.4,1.92-5.68,2.75-6.85.83-1.17,1.95-1.75,3.36-1.75s2.53.59,3.36,1.75c.83,1.17,1.75,3.45,2.75,6.85l.41,1.39c1,3.42,2.95,6.06,5.85,7.91,2.89,1.85,6.51,2.77,10.86,2.77s7.8-.6,10.37-1.79c1.92-.89,3.44-2.21,4.55-3.94-.32,4.17-1.22,8.1-2.72,11.76-1.92,4.67-4.59,8.73-8.03,12.16Z"/>
      </g>
    </g>
  </g>
</svg>