<?xml version="1.0" encoding="UTF-8"?>
<svg id="Layer_2" data-name="Layer 2" xmlns="http://www.w3.org/2000/svg" xmlns:xlink="http://www.w3.org/1999/xlink" viewBox="0 0 105 108">
  <defs>
    <style>
      .cls-1 {
        fill: #fff;
        filter: url(#drop-shadow-1);
      }
    </style>
    <filter id="drop-shadow-1" x="0" y="0" width="105" height="108" filterUnits="userSpaceOnUse">
      <feOffset dx="2" dy="2"/>
      <feGaussianBlur result="blur" stdDeviation="2"/>
      <feFlood flood-color="#000" flood-opacity=".35"/>
      <feComposite in2="blur" operator="in"/>
      <feComposite in="SourceGraphic"/>
    </filter>
  </defs>
  <g id="Content">
    <g>
      <path class="cls-1" d="M9.07,99.55c-1.5,0-2.88-.65-3.76-1.77-.53-.67-1.34-2.11-.83-4.21l3.5-13.88,1.41-2.33c-.09-.09-.17-.17-.26-.26-2.34-2.48-3.19-5.63-2.48-9.15l3.79-18.56c.49-2.37,1.72-4.62,3.64-6.7,1.87-2,3.99-3.46,6.34-4.38l16.5-6.49L53.69,4.1l15.7,9.36-13.8,22.95,26.55,12.95h1.77c2.94,0,7.05,1.22,9.93,7,1.83,3.68,2.76,8.33,2.76,13.83s-.93,10-2.76,13.58c-2.86,5.6-6.98,6.78-9.93,6.78-1.63,0-3.11-.12-4.4-.35-.81-.16-1.69-.23-2.66-.23s-2.04.15-3.17.46c-1.86.49-3.94.73-6.2.73-2.55,0-4.9-.35-7.16-1.06-2.05-.65-4.05-1.62-5.97-2.89-1.68,1.37-3.67,2.08-5.86,2.08-1.45,0-2.9-.33-4.41-1.01-.03.04-.06.09-.1.13-1.8,2.44-4.47,3.73-7.71,3.73-1.95,0-4.02-.62-6.33-1.91-1.63-.92-3.22-2.05-4.73-3.37l-1.5,2.48-11.32,8.97c-.74.53-1.89,1.24-3.34,1.24Z"/>
      <path d="M90.11,58.22c-1.55-3.12-3.61-4.69-6.19-4.69h-2.73l-31.52-15.36,14-23.27-8.56-5.09-15.35,25.39-17.82,7.01c-1.77.68-3.36,1.79-4.79,3.32-1.42,1.54-2.3,3.11-2.63,4.71l-3.79,18.54c-.44,2.17.03,3.99,1.41,5.44.8.84,1.8,1.41,2.97,1.77l-3.23,5.34-3.34,13.24c-.14.54.04.81.53.81.19,0,.49-.15.9-.45l10.59-8.39,3.98-6.6s0,0,.01,0c.75,1.07,1.64,2.11,2.71,3.11,1.51,1.42,3.08,2.6,4.73,3.52,1.64.92,3.08,1.39,4.3,1.39,1.9,0,3.35-.68,4.36-2.04.85-1.14,1.31-2.45,1.45-3.9,1.15.9,2.14,1.6,2.93,2.05,1.24.69,2.4,1.04,3.48,1.04,1.68,0,3.09-.72,4.22-2.16.39-.49.68-1.03.94-1.57.86.76,1.72,1.45,2.57,2.04,1.72,1.21,3.51,2.11,5.36,2.69,1.85.59,3.82.88,5.91.88,1.93,0,3.63-.2,5.11-.59,1.48-.39,2.9-.59,4.26-.59,1.25,0,2.38.09,3.4.29,1.02.19,2.23.29,3.65.29,2.61,0,4.68-1.5,6.21-4.5,1.53-3,2.3-6.89,2.3-11.67s-.77-8.86-2.32-11.98ZM15.63,71.34c-.46-.38-.63-.94-.49-1.67l3.79-18.54c.16-.84.71-1.74,1.63-2.69.92-.95,1.93-1.64,3.02-2.08l12.39-4.87-18.38,30.4c-.88-.04-1.54-.22-1.95-.55ZM37.67,83.16c-.3.49-.76.73-1.39.73-.71,0-1.66-.38-2.85-1.14-1.03-.66-2.05-1.48-3.06-2.42.85-.15,1.71-.38,2.57-.7,1.16-.43,2.45-1.06,3.87-1.88.05.04.1.06.15.1.37.51.65,1.06.84,1.65.2.64.3,1.26.3,1.85,0,.71-.15,1.3-.45,1.79ZM48.51,81.04c-.46,0-1.16-.29-2.08-.88-.92-.58-2.07-1.49-3.42-2.71-.85-.78-1.63-1.42-2.38-2,.52-.29.99-.52,1.39-.69.83-.35,1.58-.53,2.26-.53.95,0,1.93.34,2.93,1.02.86.58,1.92,1.54,3.15,2.83-.03.72-.19,1.39-.5,1.97-.35.65-.8.98-1.34.98ZM86.71,78.58c-.83,2.21-1.76,3.32-2.79,3.32-.92,0-2-.1-3.24-.29-1.24-.19-2.51-.29-3.81-.29-1.63,0-3.23.2-4.79.59-1.56.39-3.09.59-4.58.59-2.61,0-4.98-.58-7.11-1.73-2.13-1.16-4.41-3.09-6.83-5.81-1.66-1.85-3.2-3.18-4.63-3.99-1.42-.81-2.98-1.22-4.66-1.22-1.17,0-2.43.25-3.77.75-1.35.5-2.96,1.35-4.83,2.55-1.77,1.11-3.21,1.89-4.34,2.34-1.13.45-2.23.67-3.32.67-1.17,0-2.06-.25-2.67-.75-.61-.5-.92-1.2-.92-2.1,0-.19.5-.86,1.49-2.02.99-1.15,2.07-2.21,3.24-3.16l9.7-7.86c.79-.62,1.56-1.07,2.32-1.32.76-.26,1.77-.39,3.02-.39h10.96v-4.48h-10.96c-1.67,0-3.12.2-4.39.59l7.56-12.57,32.77,16.02h3.79c.65,0,1.28.54,1.9,1.63.61,1.09,1.12,2.55,1.53,4.4.41,1.85.61,3.9.61,6.15,0,3.37-.41,6.16-1.24,8.37Z"/>
    </g>
  </g>
</svg>