<?xml version="1.0" encoding="UTF-8"?>
<svg id="Layer_2" data-name="Layer 2" xmlns="http://www.w3.org/2000/svg" xmlns:xlink="http://www.w3.org/1999/xlink" viewBox="0 0 90 107">
  <defs>
    <style>
      .cls-1 {
        fill: #fff;
        filter: url(#drop-shadow-1);
      }
    </style>
    <filter id="drop-shadow-1" x="0" y="0" width="90" height="107" filterUnits="userSpaceOnUse">
      <feOffset dx="2" dy="2"/>
      <feGaussianBlur result="blur" stdDeviation="2"/>
      <feFlood flood-color="#000" flood-opacity=".35"/>
      <feComposite in2="blur" operator="in"/>
      <feComposite in="SourceGraphic"/>
    </filter>
  </defs>
  <g id="Content">
    <g>
      <path class="cls-1" d="M17.46,98.19l-3.32-12.27c-1.71-1.57-2.95-3.88-3.68-6.89-.59-2.44-.92-5.59-1-9.58-.85-1.42-1.59-2.85-2.22-4.34-1.85-4.3-2.79-8.97-2.79-13.87s.94-9.56,2.79-13.89c.63-1.47,1.37-2.91,2.2-4.31.08-4.24.41-7.53,1.02-10.02.76-3.09,2.05-5.44,3.83-7.01l3.18-11.73h45.26l3.16,11.73c1.78,1.57,3.07,3.93,3.82,7.01.61,2.5.94,5.79,1.02,10.04.86,1.45,1.59,2.88,2.19,4.33.62,1.48,1.14,3.03,1.55,4.64h.61c1.14,0,3.95.41,5.36,4.2.55,1.5.81,3.12.81,4.98s-.27,3.49-.81,4.95c-1.38,3.83-4.21,4.25-5.37,4.25h-.58c-.42,1.64-.95,3.22-1.58,4.72-.6,1.45-1.33,2.88-2.19,4.33-.09,4.03-.43,7.18-1.01,9.59-.73,3.01-1.97,5.33-3.68,6.9l-3.31,12.26H17.46Z"/>
      <g>
        <rect x="38.45" y="27.07" width="3.26" height="4.16"/>
        <polygon points="31.49 33.1 29.41 29.47 26.6 31.1 28.68 34.73 31.49 33.1"/>
        <rect x="15.59" y="49.48" width="4.16" height="3.26"/>
        <rect x="49.1" y="30.17" width="4.14" height="3.25" transform="translate(-2 60.12) rotate(-59.9)"/>
        <rect x="57.33" y="38.32" width="4.14" height="3.25" transform="translate(-12.02 35.18) rotate(-30.1)"/>
        <rect x="18.53" y="60.69" width="4.14" height="3.25" transform="translate(-28.47 18.74) rotate(-30.1)"/>
        <rect x="49.5" y="68.27" width="3.25" height="4.14" transform="translate(-28.38 35.12) rotate(-30.09)"/>
        <rect x="60.38" y="49.48" width="4.16" height="3.26"/>
        <path d="M76.53,47.67c-.37-.99-.85-1.49-1.45-1.49h-4.01c-.39-2.49-1.03-4.89-2-7.19-.71-1.67-1.56-3.24-2.51-4.74-.03-4.43-.33-7.86-.91-10.26-.61-2.51-1.6-4.24-2.96-5.2-.14-.1-.3-.17-.45-.25l-2.73-10.1H20.65l-2.74,10.11c-.14.08-.29.15-.42.24-1.37.95-2.36,2.68-2.98,5.2-.58,2.4-.89,5.82-.91,10.25-.96,1.5-1.81,3.07-2.53,4.75-1.63,3.82-2.44,7.9-2.44,12.24s.81,8.43,2.44,12.24c.72,1.68,1.58,3.25,2.53,4.75.04,4.2.34,7.48.91,9.81.61,2.53,1.6,4.26,2.98,5.22.09.06.2.11.29.16l2.87,10.59h38.87l2.86-10.58c.1-.06.22-.11.32-.18,1.36-.95,2.34-2.69,2.96-5.22.56-2.34.87-5.62.91-9.83.95-1.5,1.81-3.07,2.51-4.74.98-2.32,1.63-4.75,2.01-7.27h3.99c.6,0,1.08-.5,1.45-1.51.37-1,.55-2.17.55-3.5s-.18-2.53-.55-3.53ZM24.07,12.93h32.03l1.21,4.45s-.07,0-.11,0h-16.87c-.22,0-.3,0-.24,0s-.03,0-.24,0h-16.87s-.07,0-.11,0l1.21-4.45ZM56.1,89.54H24.07l-1.32-4.86c.08,0,.14.01.22.01h16.87c.22,0,.3,0,.24,0s.03,0,.24,0h16.87c.08,0,.14-.01.22-.01l-1.32,4.86ZM64.94,61.73c-1.39,3.27-3.32,6.15-5.79,8.64-2.47,2.48-5.34,4.43-8.6,5.83-3.26,1.4-6.75,2.1-10.47,2.1s-7.21-.7-10.47-2.1c-3.26-1.4-6.13-3.34-8.6-5.83-2.47-2.49-4.41-5.37-5.81-8.64-1.4-3.27-2.1-6.77-2.1-10.49s.7-7.22,2.1-10.49c1.4-3.27,3.33-6.15,5.81-8.64,2.47-2.48,5.34-4.43,8.6-5.83,3.26-1.4,6.75-2.1,10.47-2.1s7.21.7,10.47,2.1c3.26,1.4,6.13,3.34,8.6,5.83,2.47,2.49,4.4,5.37,5.79,8.64,1.39,3.27,2.08,6.77,2.08,10.49s-.69,7.22-2.08,10.49Z"/>
        <polygon points="18.33 40.52 21.95 42.63 23.58 39.82 19.95 37.7 18.33 40.52"/>
        <polygon points="56.59 62.64 60.17 64.68 61.8 61.87 58.22 59.83 56.59 62.64"/>
        <polygon points="26.31 71.57 29.12 73.16 31.2 69.57 28.39 67.94 26.31 71.57"/>
        <path d="M43.6,47.86s-.05-.06-.07-.09c-.94-.95-2.08-1.43-3.44-1.43-1.05,0-1.97.3-2.79.89l-6.7-4.07-2.49,4.2,7.13,4.31c.1,1.14.55,2.15,1.41,3,.96.96,2.11,1.45,3.44,1.45s2.51-.48,3.44-1.45c.94-.96,1.41-2.11,1.41-3.44,0-.1-.02-.2-.03-.3l9.72-6.06-1.79-2.77-9.24,5.75Z"/>
        <rect x="38.45" y="71.24" width="3.26" height="4.16"/>
      </g>
    </g>
  </g>
</svg>