<svg width="88" height="103" viewBox="0 0 88 103" fill="none" xmlns="http://www.w3.org/2000/svg">
<path d="M12.3702 9.79049V13.7202C20.5516 18.9772 29.3168 18.8565 37.7129 14.1856C43.5506 10.9367 48.3667 7.71358 55.4235 7.33439C62.4116 6.95521 70.1466 10.3076 75.6581 14.4097L69.3482 29.9908L76.3964 52.3111C76.2591 52.5869 76.0874 52.3111 75.95 52.2336C70.8163 49.2173 67.6656 45.977 61.433 44.624C47.3022 41.5646 41.9881 52.156 29.6345 54.095C25.0072 54.8189 20.483 54.345 16.0703 52.7937C14.7997 52.3456 13.5635 51.7941 12.3788 51.1736V88.7217C12.3788 90.1695 11.2113 91.3416 9.76899 91.3416C8.32673 91.3416 7.15918 90.1695 7.15918 88.7217V9.79049C7.15918 8.34269 8.32673 7.17065 9.76899 7.17065C11.2113 7.17065 12.3788 8.34269 12.3788 9.79049H12.3702Z" fill="black"/>
<g filter="url(#filter0_d_12532_5297)">
<path d="M9.76075 96.521C5.48547 96.521 2 93.0307 2 88.7304V9.79057C2 5.49886 5.47689 2 9.76075 2C14.0446 2 17.5215 5.49024 17.5215 9.79057V10.6954C20.0283 11.902 22.5952 12.5052 25.1792 12.5052C28.4415 12.5052 31.824 11.5486 35.215 9.6613C35.8932 9.28211 36.5628 8.90293 37.2239 8.53236C42.3834 5.60228 47.7232 2.5774 55.1406 2.17236C55.5956 2.1465 56.0506 2.13789 56.5056 2.13789C63.5967 2.13789 71.8983 5.18 78.7233 10.2646L81.9255 12.6517L74.8172 30.2063L81.9426 52.768L80.9811 54.6553C80.0625 56.4737 78.2511 57.6026 76.2509 57.6026C75.4267 57.6026 74.242 57.4044 73.0487 56.5254C71.5807 55.6463 70.3101 54.7932 69.0739 53.9659C66.155 52.001 63.8457 50.4498 60.343 49.6914C59.0124 49.407 57.7246 49.2605 56.5227 49.2605C52.153 49.2605 48.8822 51.122 44.7528 53.4833C40.8124 55.7325 36.3482 58.2834 30.4246 59.2141C28.7592 59.4727 27.0679 59.6106 25.3939 59.6106C22.7669 59.6106 20.1313 59.2831 17.5215 58.6367V88.739C17.5215 93.0307 14.036 96.5296 9.76075 96.5296V96.521Z" fill="white"/>
</g>
<path d="M12.3702 9.79049V13.7202C20.5516 18.9772 29.3168 18.8565 37.7129 14.1856C43.5506 10.9367 48.3667 7.71358 55.4235 7.33439C62.4116 6.95521 70.1466 10.3076 75.6581 14.4097L69.3482 29.9908L76.3964 52.3111C76.2591 52.5869 76.0874 52.3111 75.95 52.2336C70.8163 49.2173 67.6656 45.977 61.433 44.624C47.3022 41.5646 41.9881 52.156 29.6345 54.095C25.0072 54.8189 20.483 54.345 16.0703 52.7937C14.7997 52.3456 13.5635 51.7941 12.3788 51.1736V88.7217C12.3788 90.1695 11.2113 91.3416 9.76899 91.3416C8.32673 91.3416 7.15918 90.1695 7.15918 88.7217V9.79049C7.15918 8.34269 8.32673 7.17065 9.76899 7.17065C11.2113 7.17065 12.3788 8.34269 12.3788 9.79049H12.3702Z" fill="black"/>
<defs>
<filter id="filter0_d_12532_5297" x="0" y="0" width="87.9424" height="102.53" filterUnits="userSpaceOnUse" color-interpolation-filters="sRGB">
<feFlood flood-opacity="0" result="BackgroundImageFix"/>
<feColorMatrix in="SourceAlpha" type="matrix" values="0 0 0 0 0 0 0 0 0 0 0 0 0 0 0 0 0 0 127 0" result="hardAlpha"/>
<feOffset dx="2" dy="2"/>
<feGaussianBlur stdDeviation="2"/>
<feColorMatrix type="matrix" values="0 0 0 0 0 0 0 0 0 0 0 0 0 0 0 0 0 0 0.35 0"/>
<feBlend mode="normal" in2="BackgroundImageFix" result="effect1_dropShadow_12532_5297"/>
<feBlend mode="normal" in="SourceGraphic" in2="effect1_dropShadow_12532_5297" result="shape"/>
</filter>
</defs>
</svg>
