<?xml version="1.0" encoding="UTF-8"?>
<svg id="Layer_2" data-name="Layer 2" xmlns="http://www.w3.org/2000/svg" xmlns:xlink="http://www.w3.org/1999/xlink" viewBox="0 0 87 107">
  <defs>
    <style>
      .cls-1 {
        fill: #fff;
        filter: url(#drop-shadow-1);
      }
    </style>
    <filter id="drop-shadow-1" x="0" y="0" width="87" height="107" filterUnits="userSpaceOnUse">
      <feOffset dx="2" dy="2"/>
      <feGaussianBlur result="blur" stdDeviation="2"/>
      <feFlood flood-color="#000" flood-opacity=".35"/>
      <feComposite in2="blur" operator="in"/>
      <feComposite in="SourceGraphic"/>
    </filter>
  </defs>
  <g id="Content">
    <g>
      <path class="cls-1" d="M41.78,98.79c-5.33,0-10.33-.99-14.86-2.95-4.54-1.96-8.52-4.73-11.83-8.21-3.32-3.47-5.93-7.59-7.76-12.25-1.81-4.66-2.72-9.72-2.72-15.02,0-4.58.67-8.93,1.98-12.93,1.32-4.05,3.19-7.64,5.56-10.68,2.51-3.19,5.44-5.52,8.74-6.95l7.8-3.38-1.84,7.24c.85-1.07,1.7-2.13,2.56-3.2,1.11-1.4,2.08-2.92,2.86-4.53.63-1.29.95-2.87.95-4.68,0-1.49-.27-2.82-.82-4.05-.6-1.33-1.53-2.69-2.77-4.04l-3.42-3.71,4.29-2.66c1.08-.67,2.28-1.16,3.58-1.47,1.13-.28,2.42-.43,3.88-.43,3.51,0,6.87.83,9.99,2.46,3.03,1.58,5.72,3.78,7.98,6.55,2.22,2.74,3.96,5.92,5.19,9.44,1.24,3.53,1.87,7.35,1.87,11.36,0,3.16-.3,5.92-.88,8.19-.41,1.6-.62,3-.62,4.16,0,.68.11,1.19.31,1.41.15.18.17.2.41.2.08,0,.2,0,.45-.25.44-.43.78-1.07,1.02-1.9l1.64-5.92,4.9,3.7c1.81,1.37,3.37,3.21,4.76,5.62,1.24,2.19,2.22,4.66,2.94,7.36.7,2.65,1.06,5.4,1.06,8.16,0,4.62-1.01,9.04-3.01,13.13-1.95,4-4.7,7.58-8.15,10.61-3.38,2.99-7.35,5.38-11.79,7.09-4.43,1.69-9.21,2.55-14.24,2.55Z"/>
      <path d="M73.88,58.31c-.61-2.34-1.45-4.45-2.53-6.34-1.07-1.89-2.29-3.35-3.65-4.38-.44,1.58-1.15,2.84-2.14,3.79-.99.95-2.11,1.43-3.36,1.43-1.41,0-2.58-.52-3.5-1.57-.92-1.05-1.39-2.45-1.39-4.22,0-1.52.25-3.25.75-5.2.5-1.94.75-4.32.75-7.15,0-3.56-.54-6.89-1.63-9.98-1.09-3.1-2.59-5.82-4.5-8.17-1.92-2.35-4.14-4.18-6.66-5.5-2.53-1.32-5.22-1.98-8.07-1.98-1.09,0-2.06.1-2.91.31-.85.2-1.64.52-2.34.96,1.55,1.69,2.72,3.4,3.5,5.16.79,1.75,1.18,3.67,1.18,5.77,0,2.44-.45,4.61-1.37,6.5-.91,1.89-2.03,3.66-3.36,5.32-1.33,1.66-2.67,3.33-4.01,5.03-1.35,1.7-2.47,3.57-3.38,5.6-.91,2.04-1.36,4.4-1.36,7.09-.79-.84-1.42-2.04-1.9-3.59-.47-1.55-.71-3.27-.71-5.18,0-1.22.16-2.72.47-4.48.31-1.77.58-3.07.8-3.91-2.66,1.14-5.03,3.04-7.11,5.68-2.08,2.65-3.71,5.79-4.89,9.41-1.18,3.62-1.77,7.5-1.77,11.63,0,4.84.81,9.34,2.44,13.51,1.63,4.17,3.92,7.8,6.89,10.9,2.96,3.1,6.45,5.51,10.47,7.25,4.02,1.74,8.42,2.61,13.2,2.61,4.51,0,8.75-.76,12.73-2.28,3.98-1.52,7.49-3.63,10.53-6.32,3.04-2.69,5.43-5.79,7.15-9.31,1.73-3.52,2.59-7.29,2.59-11.31,0-2.39-.31-4.75-.92-7.09ZM55.89,82.63c-1.47,2.01-3.44,3.57-5.91,4.69-2.47,1.11-5.2,1.67-8.19,1.67s-5.92-.6-8.37-1.81c-2.46-1.21-4.39-2.87-5.81-4.99-1.41-2.12-2.12-4.51-2.12-7.17,0-1.33.17-2.72.51-4.18.34-1.45.78-2.78,1.3-3.97.53-1.19,1.07-2.05,1.61-2.57.11,1.9.54,3.38,1.28,4.42.75,1.05,1.7,1.57,2.87,1.57.84,0,1.45-.23,1.83-.69.38-.46.57-1.02.57-1.67,0-.79-.2-1.6-.61-2.42-.41-.83-.81-1.79-1.22-2.87-.41-1.09-.61-2.4-.61-3.95,0-2.47.62-4.99,1.87-7.56,1.25-2.57,2.99-4.97,5.22-7.21,2.23-2.24,4.79-4.11,7.7-5.6-.38.76-.75,1.84-1.1,3.24-.35,1.4-.63,2.86-.84,4.38-.2,1.52-.3,2.88-.3,4.07,0,2.44.42,4.57,1.26,6.38.84,1.81,1.89,3.45,3.14,4.93,1.25,1.48,2.49,2.92,3.73,4.32,1.24,1.4,2.28,2.9,3.12,4.5.84,1.6,1.26,3.45,1.26,5.54,0,2.64-.73,4.96-2.2,6.97Z"/>
    </g>
  </g>
</svg>