<svg preserveAspectRatio="none" width="100%" height="100%" overflow="visible" style="display: block;" viewBox="0 0 700.0 669.27" fill="none" xmlns="http://www.w3.org/2000/svg"><rect x="0" y="0" width="700.0" height="106.24" fill="black"/><g transform="translate(0 105.24) scale(1.04451)"><g transform="translate(670.172 0) rotate(90)">
<g id="clippath" transform="translate(540 0) scale(-1 1)">
<path id="Vector" d="M540 0H82.3151V9.09121H73.0651V18.5178H64.0445V27.4501H72.8002V36.7708H64.0445V55.1827H81.9797V73.4887H73.2239V91.9536H64.3622V119.439H82.015V137.78H73.2063V146.73H91.3534V137.904H100.268V156.051H73.2063V165.072H82.3858V174.251H100.303V183.572H82.3858V192.892H64.2033V210.81C67.222 210.969 70.0111 211.11 72.765 211.269V220.484H64.221V229.504H73.0297V238.454H64.3446V257.078H72.7826V275.472H55.0415V284.528H73.2063V293.514C76.2779 293.619 79.3495 293.725 82.4211 293.814V312.014H73.2063V321.281H54.8473V330.196H73.3299V348.767H91.1768V357.946H82.3681V366.914H91.5475V385.273H100.303V394.594H91.5475V403.914H82.527V412.652C85.5279 412.811 88.3171 412.97 91.1416 413.111V422.256H72.9944V430.994C69.8876 431.153 67.0984 431.312 63.815 431.488V440.491H54.865V449.812H63.709V467.747C60.7257 467.871 57.9366 468.012 55.0945 468.153V504.783H82.3858V513.733H91.1416V532.233H73.2063V578.183H81.9091V596.136H64.1857C64.0268 593.135 63.8679 590.346 63.709 587.557H54.865V605.474H91.1592V614.901H73.0474V623.833H55.0945V633.278H64.0445V642.175H81.9268V651.566H73.4181V669.942H81.9268V670.172H539.982V0H540ZM91.7594 45.5973V36.8768H82.527V27.6973H91.2475V9.53253H100.356V45.6149H91.7594V45.5973ZM91.5475 82.527V73.7712H100.321V82.527H91.5475ZM82.6505 91.6711V82.6682H91.4063C91.4063 85.6692 91.4063 88.6701 91.4063 91.6711H82.6682H82.6505ZM91.5475 100.603V91.83H100.303V100.603H91.5475ZM101.045 119.051V110.436H109.589V119.051H101.045ZM91.5475 220.166V211.41H100.321V220.166H91.5475ZM82.6505 229.045V220.325H91.4063V229.045H82.6505ZM73.1886 247.422V238.631H91.1062V247.422H73.1886ZM100.904 248.128H109.518V265.852H100.904V248.128ZM82.5976 293.743V257.202H91.1062V293.743H82.5976ZM82.4034 330.02V321.564H100.286V330.02H82.4034ZM110.065 366.755V358.211H118.68V366.755H110.065ZM73.5064 449.37V440.332H82.1739V431.647H91.1768V449.37H73.5064ZM100.992 449.441V440.72H109.448V449.441H100.992ZM73.3828 467.694V459.168H91.3004V467.694H73.3828ZM73.4887 486.265V477.474H82.2445V486.265H73.4887ZM82.4034 495.409V486.406H91.3887V495.409H82.4034ZM91.5475 504.341V495.55H100.303V504.341H91.5475ZM82.527 550.203V541.642H91.0709V550.203H82.527ZM82.6329 568.545V560.001H91.2475V568.545H82.6329ZM91.9006 596.083V587.363H100.268V596.083H91.9006ZM73.1886 632.801V624.01H81.9444V632.801H73.1886ZM73.2063 9.25008H63.9562V0H73.1356C73.1533 3.01863 73.1886 6.05492 73.2063 9.09121V9.23243V9.25008ZM82.3858 367.108H82.2445V366.967L82.3858 367.108ZM63.9033 376.146H64.0445V376.27L63.9033 376.146ZM82.2445 385.308H73.2063V376.129H64.0268V367.161H45.8973V357.982H54.5472V348.996H63.7267C63.8679 351.821 64.0268 354.61 64.1857 357.717H72.9415V367.073H82.2622V385.291L82.2445 385.308ZM82.2445 385.467V385.326H82.3681L82.2445 385.467ZM73.2063 385.308V385.449L73.0651 385.308H73.2063ZM73.2063 385.467H73.0651V385.326L73.2063 385.467ZM64.0445 385.308V385.449H63.9033L64.0445 385.308ZM45.7032 403.685V403.826H45.5619L45.7032 403.685ZM54.9709 421.691H45.6855V403.808H64.0268V385.449H73.0474V412.776H54.9533V421.691H54.9709ZM64.0268 156.069H63.9033V155.927L64.0268 156.069ZM73.2063 165.23H73.0651V165.089L73.2063 165.23ZM73.0651 165.23V174.251H55.1474V156.051H63.9033V165.23H73.0827H73.0651ZM73.0651 174.41V174.269H73.2063L73.0651 174.41ZM73.2063 523.106H73.0651V522.947L73.2063 523.106ZM73.0651 523.106V532.127H55.1121V514.121H63.709V523.106H73.0651ZM73.0651 532.268V532.127H73.2239L73.0651 532.268ZM63.5678 577.742H45.8797V569.127H54.8473V560.001H63.5678V577.742ZM73.2239 293.708H73.0651V293.567L73.2239 293.708ZM73.0651 293.708V311.925H64.3092V293.708H73.0651ZM73.0651 312.049V311.908H73.2239L73.0651 312.049ZM64.0621 128.689V146.536H55.0415V128.689H64.0621ZM64.0621 146.695V146.536H64.2033L64.0797 146.695H64.0621ZM64.0445 642.369H63.8856V642.227L64.0445 642.369ZM63.9033 651.142H45.9503V642.369H63.9033V651.142ZM54.4943 109.871H36.8238V101.274H54.4943V109.871ZM54.3884 219.848H46.0033V201.948H54.3884V219.848ZM54.865 330.39H54.7238V330.249L54.865 330.39ZM54.7238 339.164H36.7708V330.39H54.7238V339.164ZM91.5652 385.467H91.424V385.326L91.5652 385.467ZM82.3858 385.308V385.449H82.2622L82.3858 385.308ZM91.424 385.467V394.505H82.3858V385.467H91.424ZM91.424 394.629V394.505H91.5652L91.424 394.629ZM82.3858 174.41H82.2622V174.286L82.3858 174.41ZM73.2063 174.269V174.41H73.0651L73.2063 174.269ZM82.2445 174.41V183.448H73.2063V174.41H82.2445ZM82.2445 183.589V183.448H82.3858L82.2445 183.589ZM82.3858 513.927H82.2445V513.786L82.3858 513.927ZM82.2445 522.947H73.2063V513.927H82.2445V522.947ZM73.0651 522.947H73.2063V523.106L73.0651 522.947ZM73.0827 64.5564V73.3475H64.3269V64.5564H73.0827ZM73.0827 73.4887V73.3475H73.2239L73.0827 73.4887ZM64.1857 146.536V146.695H64.0621L64.1857 146.536ZM73.2239 146.889H73.0651V146.748L73.2239 146.889ZM73.0651 155.927H64.0268C64.0797 152.856 64.1327 149.784 64.1857 146.695C67.1337 146.748 70.0994 146.819 73.0651 146.889V155.927ZM64.0268 155.927V156.069L63.9033 155.927H64.0268ZM73.0651 156.069V155.927H73.2063L73.0651 156.069ZM64.0445 27.609H63.9033V27.4678L64.0445 27.609ZM54.8826 27.4678V27.609H54.7414L54.8826 27.4678ZM63.9033 27.609V36.6296H54.8826V27.609C57.8836 27.609 60.9023 27.609 63.9033 27.609ZM63.9033 36.7708V36.6296H64.0445L63.9033 36.7708ZM64.0445 376.27H63.9033V376.146L64.0445 376.27ZM63.9033 376.27V385.308H55.1474V376.27H63.9033ZM63.9033 385.467V385.326H64.0445L63.9033 385.467ZM54.7414 18.6767V27.4678H45.9856V18.6767H54.7414ZM54.7414 27.609V27.4678H54.8826L54.7414 27.609ZM54.7238 431.594C54.7238 434.542 54.7238 437.455 54.7238 440.385H45.968V431.594H54.7238ZM54.7414 440.526V440.385H54.8826L54.7414 440.526ZM54.865 605.668H54.7238V605.527L54.865 605.668ZM54.7238 614.424H45.9503V605.668H54.7238V614.424ZM45.3678 293.425H36.7885V284.74H45.3678V293.425ZM45.5443 394.894V403.685H36.7885V394.894H45.5443ZM45.5443 403.826V403.685H45.6855L45.5443 403.826ZM45.2442 669.519H36.6826V660.904H45.2442V669.519ZM36.1177 137.374H27.4855V128.83H36.1177V137.374ZM36.0294 155.804H27.5737V147.083H36.0294V155.804ZM36.1177 265.834H27.4855V257.29H36.1177V265.834ZM36.1177 311.714H27.4855V303.17H36.1177V311.714ZM36.0824 366.737H27.3619V358.264H36.0824V366.737ZM36.1353 495.25H27.4501V486.671H36.1353V495.25ZM27.1677 63.8503H18.4472V55.3593H27.1677V63.8503ZM17.8823 642.033H9.16182V633.525H17.8823V642.033ZM17.6705 660.569H9.2854V651.831H17.6705V660.569ZM8.68521 18.0941H0.123583V9.55018H8.68521V18.0941ZM8.54396 366.826H0V358.264H8.54396V366.826Z" fill="black"/>
</g>
</g></g></svg>