<svg preserveAspectRatio="none" width="100%" height="100%" overflow="visible" style="display: block;" viewBox="0 0 1458.31 321.844" fill="none" xmlns="http://www.w3.org/2000/svg">
<g id="Content">
<path id="Vector" d="M65.8566 153.534V187.194H32.9283V153.534H65.8566ZM131.723 153.534V187.194H164.651V153.534H131.723ZM65.8566 187.194V220.854H98.7848V187.194H65.8566ZM4.24609e-05 220.864V254.524H32.9283V220.864H4.24609e-05ZM131.723 220.864V254.524H164.651V220.864H131.723ZM4.24609e-05 254.524V288.184H32.9283V254.524H4.24609e-05ZM32.9283 254.524V288.184H65.8566V254.524H32.9283ZM98.7946 254.524V288.184H131.723V254.524H98.7946ZM32.9283 288.184V321.844H65.8566V288.184H32.9283ZM65.8566 288.184V321.844H98.7848V288.184H65.8566ZM98.7946 288.184V321.844H131.723V288.184H98.7946Z" fill="url(#paint0_linear_0_123)"/>
<g id="Content_2">
<path id="Vector_2" d="M1323.66 33.66H1290V0H1323.66V33.66ZM1323.66 0V33.66H1357.32V0H1323.66ZM1390.99 0V33.66H1424.65V0H1390.99ZM1424.65 0V33.66H1458.31V0H1424.65ZM1290 33.66V67.32H1323.66V33.66H1290ZM1357.33 33.66V67.32H1390.99V33.66H1357.33ZM1323.66 67.33V100.99H1357.32V67.33H1323.66ZM1390.99 67.33V100.99H1424.65V67.33H1390.99ZM1424.65 67.33V100.99H1458.31V67.33H1424.65ZM1290 100.99V134.65H1323.66V100.99H1290ZM1323.66 100.99V134.65H1357.32V100.99H1323.66ZM1357.33 134.65V168.31H1390.99V134.65H1357.33ZM1424.65 134.65V168.31H1458.31V134.65H1424.65Z" fill="url(#paint1_linear_0_123)"/>
</g>
</g>
<defs>
<linearGradient id="paint0_linear_0_123" x1="173.152" y1="148.034" x2="-16.7909" y2="333.359" gradientUnits="userSpaceOnUse">
<stop stop-color="#FF0000"/>
<stop offset="1" stop-color="#FFFF00"/>
</linearGradient>
<linearGradient id="paint1_linear_0_123" x1="1461" y1="-16.5" x2="1284.5" y2="180" gradientUnits="userSpaceOnUse">
<stop stop-color="#FF0000"/>
<stop offset="1" stop-color="#FFFF00"/>
</linearGradient>
</defs>
</svg>
