<svg width="169" height="169" viewBox="0 0 169 169" fill="none" xmlns="http://www.w3.org/2000/svg">
<path d="M67.32 0V33.66H33.66V0H67.32ZM134.65 0V33.66H168.31V0H134.65ZM0 33.66V67.32H33.66V33.66H0ZM33.66 33.66V67.32H67.32V33.66H33.66ZM134.65 33.66V67.32H168.31V33.66H134.65ZM0 67.33V100.99H33.66V67.33H0ZM100.99 67.33V100.99H134.65V67.33H100.99ZM33.66 100.99V134.65H67.32V100.99H33.66ZM67.32 100.99V134.65H100.98V100.99H67.32ZM100.99 100.99V134.65H134.65V100.99H100.99ZM134.65 100.99V134.65H168.31V100.99H134.65ZM0 134.65V168.31H33.66V134.65H0ZM67.32 134.65V168.31H100.98V134.65H67.32ZM134.65 134.65V168.31H168.31V134.65H134.65Z" fill="url(#paint0_linear_10696_6750)"/>
<defs>
<linearGradient id="paint0_linear_10696_6750" x1="182.5" y1="-20.5" x2="-17" y2="190.5" gradientUnits="userSpaceOnUse">
<stop stop-color="#FF0000"/>
<stop offset="1" stop-color="#FFFF00"/>
</linearGradient>
</defs>
</svg>
