<svg width="169" height="169" viewBox="0 0 169 169" fill="none" xmlns="http://www.w3.org/2000/svg">
<path d="M33.66 0V33.66H67.32V0H33.66ZM100.98 0V33.66H134.65V0H100.98ZM0 33.66V67.32H33.66V33.66H0ZM100.98 33.66V67.32H134.65V33.66H100.98ZM134.65 33.66V67.32H168.31V33.66H134.65ZM67.32 67.32V100.99H100.98V67.32H67.32ZM0 100.99V134.65H33.66V100.99H0ZM67.32 100.99V134.65H100.98V100.99H67.32ZM134.65 100.99V134.65H168.31V100.99H134.65ZM0 134.65V168.31H33.66V134.65H0ZM33.66 134.65V168.31H67.32V134.65H33.66ZM100.98 134.65V168.31H134.65V134.65H100.98ZM134.65 134.65V168.31H168.31V134.65H134.65Z" fill="url(#paint0_linear_10696_6746)"/>
<defs>
<linearGradient id="paint0_linear_10696_6746" x1="173" y1="-7.50001" x2="-15.5" y2="190.5" gradientUnits="userSpaceOnUse">
<stop stop-color="#FF0000"/>
<stop offset="1" stop-color="#FFFF00"/>
</linearGradient>
</defs>
</svg>
