<svg width="169" height="169" viewBox="0 0 169 169" fill="none" xmlns="http://www.w3.org/2000/svg">
<path d="M33.66 0V33.66H0V0H33.66ZM33.66 0V33.66H67.32V0H33.66ZM67.32 0V33.66H100.98V0H67.32ZM134.65 0V33.66H168.31V0H134.65ZM67.32 33.66V67.32H100.98V33.66H67.32ZM134.65 33.66V67.32H168.31V33.66H134.65ZM33.66 67.33V100.99H67.32V67.33H33.66ZM100.99 67.33V100.99H134.65V67.33H100.99ZM67.32 100.99V134.65H100.98V100.99H67.32ZM100.99 100.99V134.65H134.65V100.99H100.99ZM0 134.65V168.31H33.66V134.65H0ZM134.65 134.65V168.31H168.31V134.65H134.65Z" fill="url(#paint0_linear_10696_6744)"/>
<defs>
<linearGradient id="paint0_linear_10696_6744" x1="173.5" y1="-10.5" x2="-9.5" y2="181" gradientUnits="userSpaceOnUse">
<stop stop-color="#FF0000"/>
<stop offset="1" stop-color="#FFFF00"/>
</linearGradient>
</defs>
</svg>
